<svg xmlns:xlink="http://www.w3.org/1999/xlink"  width="112" height="112" fill="none" xmlns="http://www.w3.org/2000/svg" id="svg1319216022_539"><rect width="112" height="112" rx="56" fill="#87EA5C"></rect><rect x="1" y="1" width="110" height="110" rx="55" stroke="#083400" stroke-opacity=".08" stroke-width="2"></rect><path d="M51 42.667V41c0-.92.746-1.667 1.667-1.667h6.666c.92 0 1.667.747 1.667 1.667v1.667h5c.92 0 1.667.746 1.667 1.666V71c0 .92-.746 1.667-1.667 1.667H46c-.92 0-1.667-.746-1.667-1.667V44.333c0-.92.747-1.666 1.667-1.666h5ZM57.667 56v-8.333l-8.334 11.666h5v8.334L62.667 56h-5Z" fill="#083400"></path></svg>