<svg xmlns:xlink="http://www.w3.org/1999/xlink"  xmlns="http://www.w3.org/2000/svg" width="379" height="266" fill="none"><path fill="#fff" d="M0 0h378.163v265.121H0z"/><rect width="55.293" height="55.293" x="23.697" y="19.747" fill="#87EA5C" rx="27.646"/><path fill="#083400" d="M51.03 37.559a4.475 4.475 0 0 0-.292.067.883.883 0 0 1-.167.035.384.384 0 0 0-.125.032c-.042.019-.123.05-.181.074-.058.021-.17.07-.25.107-.08.034-.15.065-.158.065-.007 0-.06.03-.118.07-.056.036-.107.069-.111.069a1.62 1.62 0 0 0-.151.095 4.335 4.335 0 0 0-.616.53c-.121.13-.383.47-.41.533a3.536 3.536 0 0 0-.44 1.031c-.091.35-.11.566-.11 1.303 0 .397-.007.737-.014.758-.014.033-.21.037-2.014.037-1.886 0-2.002.003-2.014.04-.011.039-.02.347-.095 2.764l-.208 6.895-.07 2.237c-.02.593-.04 1.379-.042 1.75-.004.64-.002.676.042.755.13.223.276.35.487.422.109.037.6.04 7.683.04 7.05 0 7.571-.003 7.67-.04a.845.845 0 0 0 .483-.413l.063-.115-.005-.66a76.811 76.811 0 0 0-.042-1.74l-.07-2.236c-.018-.637-.05-1.673-.069-2.299-.018-.628-.05-1.657-.07-2.282-.15-4.949-.152-5.032-.164-5.078-.012-.037-.127-.04-2.023-.04-1.572 0-2.019-.007-2.049-.03-.033-.025-.04-.12-.046-.85-.012-.825-.017-.89-.11-1.264a3.676 3.676 0 0 0-1.61-2.148c-.31-.188-.707-.36-.939-.413a3.465 3.465 0 0 1-.185-.043c-.417-.1-1.09-.128-1.46-.058zm.994.776a2.932 2.932 0 0 1 1.954 1.1c.055.077.111.154.118.172.01.019.037.065.063.105.11.173.243.482.28.655a.522.522 0 0 0 .035.123c.044.075.079.575.079 1.173 0 .623-.003.656-.044.68-.063.031-5.644.031-5.706 0-.042-.024-.044-.057-.044-.68 0-.806.032-1.087.173-1.474a2.919 2.919 0 0 1 1.727-1.706 3.081 3.081 0 0 1 1.365-.148zm-3.608 6.125c.224.1.366.31.366.545 0 .13-.098.331-.202.417a.812.812 0 0 1-.42.162.688.688 0 0 1-.553-.35.602.602 0 0 1 .113-.662.655.655 0 0 1 .696-.112zm6.983 0c.229.105.359.3.359.536 0 .31-.223.544-.561.584-.132.016-.34-.053-.466-.158a.605.605 0 0 1-.171-.628c.037-.123.206-.297.343-.347a.676.676 0 0 1 .495.013z"/><path fill="#000" d="M40.033 96.94v-8.986h1.605l3.042 5.982 3.029-5.982h1.604v8.985h-1.36v-6.636l-2.747 5.353h-1.053l-2.76-5.34v6.623h-1.36zm13.211.153c-.539 0-.984-.09-1.335-.27-.35-.179-.612-.414-.783-.705a1.932 1.932 0 0 1-.256-.976c0-.616.24-1.104.718-1.463.48-.36 1.164-.54 2.054-.54h1.669v-.115c0-.496-.137-.868-.411-1.116-.265-.249-.612-.373-1.04-.373a1.74 1.74 0 0 0-.988.283c-.274.18-.44.449-.5.808H51.01a2.13 2.13 0 0 1 .462-1.18 2.597 2.597 0 0 1 1.027-.758c.419-.18.877-.27 1.373-.27.89 0 1.579.236 2.067.707.487.462.731 1.095.731 1.9v3.914h-1.18l-.116-1.09c-.18.35-.44.645-.783.885-.342.24-.792.36-1.348.36zm.27-1.104c.368 0 .676-.085.924-.256a1.76 1.76 0 0 0 .59-.706 2.71 2.71 0 0 0 .27-.963h-1.515c-.539 0-.924.094-1.155.282a.887.887 0 0 0-.334.706c0 .291.107.522.321.694.223.162.522.243.899.243zm4.744.95v-9.242h1.36v9.242h-1.36zm3.083 0v-9.242h1.36v9.242h-1.36z"/><rect width="55.293" height="55.293" x="115.522" y="19.747" fill="#87EA5C" rx="27.646"/><path fill="#083400" fill-rule="evenodd" d="M134.281 42.21c0-.953.774-1.727 1.728-1.727h14.317c.954 0 1.728.774 1.728 1.728v10.382a1.728 1.728 0 0 1-1.728 1.728h-1.481c-.077 0-.153-.005-.227-.015h-10.901c-.074.01-.15.015-.227.015h-1.481a1.729 1.729 0 0 1-1.728-1.728V42.21zm16.292 7.292v-1.11a.248.248 0 0 0-.247-.247h-1.481a.248.248 0 0 0-.247.247v1.11c0 .137.111.247.247.247h1.481a.248.248 0 0 0 .247-.247zm0 1.98a.248.248 0 0 0-.247-.247h-1.481a.248.248 0 0 0-.247.247v1.11c0 .107.068.198.163.233h1.565a.248.248 0 0 0 .247-.247v-1.096zm-14.811 1.096v-1.096c0-.066.026-.128.073-.175a.246.246 0 0 1 .174-.072h1.481a.246.246 0 0 1 .247.247v1.11a.247.247 0 0 1-.162.233h-1.566a.246.246 0 0 1-.174-.073.245.245 0 0 1-.073-.174zm1.975-4.187v1.111a.247.247 0 0 1-.247.247h-1.481a.246.246 0 0 1-.174-.072.244.244 0 0 1-.073-.175v-1.11c0-.066.026-.129.073-.175a.246.246 0 0 1 .174-.072h1.481a.246.246 0 0 1 .247.246zm12.836-1.98v-1.11a.248.248 0 0 0-.247-.247h-1.481a.248.248 0 0 0-.247.247v1.11c0 .137.111.248.247.248h1.481a.248.248 0 0 0 .247-.247zm-13.083-1.357a.246.246 0 0 1 .247.247v1.11a.248.248 0 0 1-.247.248h-1.481a.246.246 0 0 1-.174-.073.245.245 0 0 1-.073-.174V45.3c0-.065.026-.128.073-.175a.246.246 0 0 1 .174-.072h1.481zm0-3.09a.246.246 0 0 1 .247.247v1.11a.248.248 0 0 1-.247.247h-1.481a.246.246 0 0 1-.174-.072.245.245 0 0 1-.073-.175v-1.11c0-.066.026-.129.073-.175a.246.246 0 0 1 .174-.072h1.481zm11.355 1.604a.248.248 0 0 1-.247-.247v-1.11a.248.248 0 0 1 .247-.247h1.481a.248.248 0 0 1 .247.247v1.11a.248.248 0 0 1-.247.247h-1.481zm-8.886 3.086a.74.74 0 1 0 0 1.48h6.418a.74.74 0 0 0 0-1.48h-6.418z" clip-rule="evenodd"/><path fill="#000" d="M124.374 96.94v-7.882h-2.657v-1.104h6.662v1.104h-2.644v7.881h-1.361zm5.997-7.574a.923.923 0 0 1-.642-.231.822.822 0 0 1-.244-.603.78.78 0 0 1 .244-.59.895.895 0 0 1 .642-.245c.257 0 .466.082.629.244a.76.76 0 0 1 .257.59.8.8 0 0 1-.257.604.877.877 0 0 1-.629.231zm-.68 7.573v-6.366h1.36v6.366h-1.36zm6.173.154a3.343 3.343 0 0 1-1.682-.423 3.1 3.1 0 0 1-1.155-1.168c-.274-.505-.411-1.087-.411-1.746s.137-1.237.411-1.733a3.074 3.074 0 0 1 1.155-1.18 3.342 3.342 0 0 1 1.682-.424c.787 0 1.446.205 1.977.616.539.41.885.967 1.039 1.668h-1.424a1.341 1.341 0 0 0-.565-.821 1.788 1.788 0 0 0-1.027-.295c-.334 0-.642.085-.924.256a1.769 1.769 0 0 0-.681.732c-.171.317-.256.71-.256 1.18 0 .472.085.87.256 1.195.172.316.398.56.681.731.282.171.59.257.924.257.394 0 .736-.098 1.027-.295.291-.197.479-.475.565-.835h1.424a2.75 2.75 0 0 1-1.027 1.656c-.539.42-1.202.63-1.989.63zm4.492-.154v-9.242h1.361v5.507l2.438-2.631h1.63l-2.708 2.888 3.106 3.478h-1.72l-2.746-3.26v3.26h-1.361zm9.371.154c-.625 0-1.181-.137-1.669-.41a3.029 3.029 0 0 1-1.13-1.169c-.273-.496-.41-1.073-.41-1.732 0-.668.132-1.254.398-1.759a2.99 2.99 0 0 1 1.129-1.18c.488-.283 1.053-.424 1.695-.424.624 0 1.168.14 1.63.423.462.274.821.642 1.078 1.104.257.462.385.971.385 1.528 0 .085-.004.18-.013.282 0 .094-.004.201-.013.32h-4.954c.042.617.244 1.088.603 1.413a1.89 1.89 0 0 0 1.271.475c.385 0 .706-.086.962-.257.266-.18.462-.42.591-.719h1.36a2.876 2.876 0 0 1-1.026 1.502c-.505.402-1.134.603-1.887.603zm0-5.558c-.454 0-.856.137-1.207.411-.351.265-.565.668-.642 1.207h3.594c-.025-.497-.201-.89-.526-1.181-.325-.291-.732-.437-1.219-.437zm7.025 5.404c-.625 0-1.121-.15-1.489-.449-.368-.308-.552-.852-.552-1.63v-3.145h-1.091v-1.142h1.091l.167-1.618h1.193v1.618h1.797v1.142h-1.797v3.145c0 .35.073.594.219.731.154.129.415.193.782.193h.732v1.155h-1.052zm5.061.154c-.805 0-1.468-.197-1.99-.59a2.21 2.21 0 0 1-.898-1.566h1.373c.069.29.231.543.488.757.257.206.595.308 1.014.308.411 0 .71-.085.898-.256.189-.172.283-.368.283-.591 0-.325-.133-.543-.398-.655-.257-.12-.616-.226-1.078-.32a8.5 8.5 0 0 1-1.079-.309 2.485 2.485 0 0 1-.885-.539c-.231-.24-.347-.56-.347-.962 0-.557.214-1.019.642-1.387.428-.376 1.027-.564 1.797-.564.71 0 1.284.17 1.72.513.445.342.706.826.783 1.45h-1.309a.935.935 0 0 0-.385-.641c-.206-.154-.484-.231-.835-.231-.342 0-.607.072-.795.218a.635.635 0 0 0-.283.539c0 .223.129.398.385.526.265.129.612.244 1.04.347a9.62 9.62 0 0 1 1.181.334c.368.12.663.299.885.539.223.24.334.59.334 1.052.009.582-.218 1.066-.68 1.45-.454.386-1.074.578-1.861.578z"/><rect width="55.293" height="55.293" x="207.348" y="19.747" fill="#87EA5C" rx="27.646"/><path fill="#083400" d="m236.64 44.883 6.583 4.157v1.646l-6.583-2.079v4.41l2.469 1.372v1.234l-3.703-.823-3.703.823v-1.234l2.469-1.372v-4.41l-6.583 2.08V49.04l6.583-4.158V40.4a1.234 1.234 0 1 1 2.468 0v4.482z"/><path fill="#000" d="M215.994 96.94v-8.986h5.635v1.104h-4.275v2.837h3.543v1.09h-3.543v3.954h-1.36zm6.918 0v-9.243h1.361v9.242h-1.361zm3.854-7.574a.923.923 0 0 1-.642-.231.818.818 0 0 1-.244-.603c0-.24.081-.437.244-.59a.895.895 0 0 1 .642-.245c.256 0 .466.082.629.244a.759.759 0 0 1 .256.59.8.8 0 0 1-.256.604.879.879 0 0 1-.629.231zm-.681 7.573v-6.366h1.361v6.366h-1.361zm5.763-1.95c-.334 0-.642-.04-.924-.116l-.552.539c.094.06.209.111.346.154.137.043.33.081.578.115.248.035.586.069 1.014.103.847.077 1.459.282 1.835.616.377.325.565.762.565 1.31 0 .376-.103.731-.308 1.065-.197.342-.509.616-.937.821-.419.214-.958.321-1.617.321-.89 0-1.613-.171-2.169-.513-.548-.334-.822-.843-.822-1.528 0-.265.068-.53.205-.796.146-.256.373-.5.681-.731a3.49 3.49 0 0 1-.475-.244 4.064 4.064 0 0 1-.347-.282v-.309l1.104-1.13c-.496-.427-.744-.987-.744-1.68 0-.42.098-.8.295-1.143.205-.35.5-.629.886-.834.385-.206.847-.308 1.386-.308.359 0 .693.051 1.001.154h2.375v.898l-1.13.064c.205.351.308.74.308 1.168 0 .428-.103.813-.308 1.156a2.137 2.137 0 0 1-.873.821c-.376.205-.834.308-1.373.308zm0-1.066c.393 0 .71-.103.95-.308.248-.214.372-.514.372-.899 0-.393-.124-.693-.372-.898-.24-.206-.557-.308-.95-.308-.402 0-.728.102-.976.308-.239.205-.359.505-.359.898 0 .385.12.685.359.899.248.205.574.308.976.308zm-1.707 3.825a.88.88 0 0 0 .487.821c.326.189.732.283 1.22.283.47 0 .851-.103 1.142-.308.291-.197.437-.462.437-.796a.84.84 0 0 0-.296-.642c-.196-.171-.569-.278-1.116-.32a11.277 11.277 0 0 1-1.091-.116c-.3.162-.505.338-.617.526a1.083 1.083 0 0 0-.166.552zm6.296-.809v-9.242h1.361V91.6c.214-.368.509-.655.885-.86a2.576 2.576 0 0 1 1.271-.321c.762 0 1.361.24 1.797.718.437.48.655 1.194.655 2.144v3.658h-1.348v-3.517c0-1.232-.492-1.848-1.476-1.848-.513 0-.941.18-1.284.539-.333.36-.5.873-.5 1.54v3.286h-1.361zm10.241 0c-.625 0-1.121-.15-1.489-.449-.368-.308-.552-.852-.552-1.63v-3.145h-1.091v-1.142h1.091l.167-1.618h1.194v1.618h1.797v1.142h-1.797v3.145c0 .35.073.594.218.731.154.129.415.193.783.193h.732v1.155h-1.053zm5.061.154c-.804 0-1.467-.197-1.989-.59a2.212 2.212 0 0 1-.899-1.566h1.374c.068.29.231.543.487.757.257.206.595.308 1.014.308.411 0 .711-.085.899-.256.188-.172.282-.368.282-.591 0-.325-.132-.543-.398-.655-.256-.12-.616-.226-1.078-.32a8.487 8.487 0 0 1-1.078-.309 2.489 2.489 0 0 1-.886-.539c-.231-.24-.346-.56-.346-.962 0-.557.214-1.019.642-1.387.427-.376 1.026-.564 1.797-.564.71 0 1.283.17 1.72.513.445.342.706.826.783 1.45h-1.31a.932.932 0 0 0-.385-.641c-.205-.154-.483-.231-.834-.231-.342 0-.608.072-.796.218a.637.637 0 0 0-.282.539c0 .223.128.398.385.526.265.129.612.244 1.039.347a9.57 9.57 0 0 1 1.181.334c.368.12.664.299.886.539.223.24.334.59.334 1.052.008.582-.218 1.066-.681 1.45-.453.386-1.073.578-1.861.578z"/><rect width="55.293" height="55.293" x="299.174" y="19.747" fill="#87EA5C" rx="27.646"/><g clip-path="url(#a)"><path fill="#083400" d="M325.025 39.79c-.108.108-.191.384-.191.66 0 .275-.06.49-.144.514a25.4 25.4 0 0 1-1.294.252c-.623.12-1.426.311-1.785.443-.587.228-.659.3-.923.887-.156.36-.455 1.21-.671 1.905l-.383 1.258-.276-.264c-.227-.215-.419-.251-1.174-.263-.994-.012-1.342.18-1.21.623.084.227 1.066.742 1.438.742.251 0 .251.013-.168.695-.575.923-.599 1.774-.144 6.638.132 1.342.216 1.414 1.833 1.414 1.246 0 1.294-.012 1.534-.312.144-.18.251-.443.251-.599 0-.228.084-.3.456-.371.575-.108 8.686-.108 9.273 0 .371.072.455.155.515.479.156.73.312.803 1.749.803 1.246 0 1.294-.012 1.534-.312.144-.18.252-.491.252-.707 0-.215.083-1.138.191-2.048.12-.995.18-2.205.144-3.008-.048-1.258-.072-1.378-.431-1.953-.444-.718-.444-.718-.168-.718.108 0 .491-.132.839-.3.431-.204.623-.36.623-.515 0-.42-.336-.563-1.27-.551-.755.012-.935.048-1.174.275l-.288.276-.084-.408c-.132-.575-.827-2.611-1.054-3.043-.132-.251-.372-.443-.707-.587-.599-.24-2.408-.647-2.863-.659-.36 0-.468-.18-.468-.767 0-.623-.132-.67-1.929-.67-1.342 0-1.689.036-1.833.191zm4.541 2.145c.659.096 1.462.263 1.785.371.491.168.611.276.791.695.252.551.887 2.708.815 2.756-.012.024-.468-.012-.995-.072-1.126-.132-10.807-.06-11.118.072-.252.12-.24.024.239-1.606.432-1.461.576-1.653 1.354-1.88 1.738-.504 4.901-.66 7.129-.336zm-8.195 6.541c.659.288 1.066.815 1.066 1.39 0 .563-.251.695-.994.527-1.462-.323-2.348-.994-2.193-1.629.144-.575 1.139-.707 2.121-.288zm12.784-.06c.395.276.347.791-.108 1.175-.455.383-.947.599-1.833.802-.527.12-.695.12-.851-.012-.347-.287-.144-1.102.396-1.593.575-.515 1.893-.719 2.396-.371zM322.318 51.4c0 .144-.24.18-1.438.18s-1.438-.036-1.438-.18c0-.156.24-.18 1.438-.18s1.438.024 1.438.18zm11.861 0c0 .144-.24.18-1.438.18s-1.438-.036-1.438-.18c0-.156.24-.18 1.438-.18s1.438.024 1.438.18z"/></g><path fill="#000" d="M314.35 96.94v-8.986h3.094c.71 0 1.292.12 1.745.36.463.24.805.564 1.027.975.223.402.334.852.334 1.348 0 .556-.15 1.06-.449 1.514-.291.454-.749.78-1.374.976l1.913 3.812h-1.579l-1.746-3.62h-1.604v3.62h-1.361zm1.361-4.647h1.656c.616 0 1.065-.15 1.348-.45.29-.3.436-.689.436-1.168s-.141-.86-.424-1.142c-.282-.291-.74-.436-1.373-.436h-1.643v3.196zm7.167-2.927a.922.922 0 0 1-.641-.231.818.818 0 0 1-.244-.603c0-.24.081-.437.244-.59a.894.894 0 0 1 .641-.245.85.85 0 0 1 .629.244.756.756 0 0 1 .257.59c0 .24-.085.441-.257.604a.876.876 0 0 1-.629.231zm-.68 7.573v-6.366h1.361v6.366h-1.361zm6.058.154c-.616 0-1.16-.145-1.63-.436a3.027 3.027 0 0 1-1.104-1.194c-.266-.505-.398-1.078-.398-1.72 0-.642.132-1.21.398-1.707a2.937 2.937 0 0 1 1.104-1.181c.479-.29 1.026-.436 1.643-.436.504 0 .945.098 1.322.295.385.197.684.475.898.834v-3.85h1.361v9.241h-1.22l-.141-.988c-.205.3-.488.565-.847.796-.359.23-.821.346-1.386.346zm.244-1.18c.582 0 1.056-.202 1.424-.604.377-.402.565-.92.565-1.553 0-.642-.188-1.16-.565-1.553-.368-.402-.842-.603-1.424-.603s-1.061.2-1.438.603c-.376.393-.565.911-.565 1.553 0 .42.086.791.257 1.117.171.325.406.581.706.77.308.18.655.27 1.04.27zm8.043 1.18c-.624 0-1.181-.137-1.668-.41a3.022 3.022 0 0 1-1.13-1.169c-.274-.496-.411-1.073-.411-1.732 0-.668.133-1.254.398-1.759a3.006 3.006 0 0 1 1.13-1.18c.487-.283 1.052-.424 1.694-.424.625 0 1.168.14 1.63.423a2.9 2.9 0 0 1 1.078 1.104c.257.462.385.971.385 1.528 0 .085-.004.18-.012.282 0 .094-.005.201-.013.32h-4.955c.043.617.244 1.088.603 1.413.368.316.792.475 1.271.475.385 0 .706-.086.963-.257.265-.18.462-.42.59-.719h1.361a2.872 2.872 0 0 1-1.027 1.502c-.505.402-1.134.603-1.887.603zm0-5.558c-.453 0-.856.137-1.206.411-.351.265-.565.668-.642 1.207h3.594c-.026-.497-.201-.89-.526-1.181-.326-.291-.732-.437-1.22-.437z"/><rect width="55.293" height="55.293" x="23.697" y="130.586" fill="#87EA5C" rx="27.646"/><path fill="#083400" d="M44.31 153.047c0-.339.275-.615.615-.615 2.184 0 4.312-.773 6.397-2.337a.615.615 0 0 1 .738 0c2.085 1.564 4.213 2.337 6.398 2.337.34 0 .615.276.615.615v4.306c0 4.102-2.426 7.116-7.156 8.98a.616.616 0 0 1-.451 0c-4.73-1.864-7.156-4.878-7.156-8.98v-4.306z"/><path fill="#000" d="M22.497 207.777v-8.985h1.36v8.985h-1.36zm3.132 0v-6.366h1.207l.103 1.116c.196-.393.483-.701.86-.924a2.52 2.52 0 0 1 1.322-.346c.77 0 1.373.239 1.81.719.444.479.667 1.193.667 2.143v3.658H30.25v-3.517c0-1.232-.505-1.848-1.515-1.848-.504 0-.924.18-1.257.539-.326.359-.488.873-.488 1.54v3.286h-1.36zm10.113.154c-.804 0-1.468-.196-1.99-.59a2.213 2.213 0 0 1-.898-1.566h1.373c.069.291.231.543.488.757.257.206.595.308 1.014.308.41 0 .71-.085.898-.256.189-.172.283-.368.283-.591 0-.325-.133-.543-.398-.654-.257-.12-.616-.227-1.078-.321a8.555 8.555 0 0 1-1.078-.308 2.484 2.484 0 0 1-.886-.54c-.231-.239-.347-.56-.347-.962 0-.556.214-1.019.642-1.386.428-.377 1.027-.565 1.797-.565.71 0 1.284.171 1.72.513.445.342.706.826.783 1.451h-1.31a.935.935 0 0 0-.384-.642c-.206-.154-.484-.231-.835-.231-.342 0-.607.073-.795.218a.637.637 0 0 0-.283.539c0 .223.129.398.385.526.266.129.612.244 1.04.347.428.094.822.205 1.18.334.369.119.664.299.887.539.222.239.333.59.333 1.052.009.582-.218 1.066-.68 1.451-.453.385-1.074.577-1.861.577zm6.376 0c-.77 0-1.378-.239-1.823-.718-.437-.48-.655-1.194-.655-2.144v-3.658H41v3.517c0 1.232.506 1.848 1.516 1.848.504 0 .92-.18 1.245-.539.325-.359.487-.873.487-1.54v-3.286h1.361v6.366h-1.207l-.102-1.116a2.249 2.249 0 0 1-.873.937c-.377.222-.813.333-1.31.333zm5.222-.154v-6.366h1.22l.115 1.206c.222-.419.53-.748.924-.988.402-.248.886-.372 1.45-.372v1.425h-.372a2.56 2.56 0 0 0-1.014.192c-.29.12-.526.33-.706.629-.171.291-.257.697-.257 1.219v3.055h-1.36zm7.032.154c-.539 0-.984-.089-1.335-.269-.35-.18-.611-.415-.783-.706a1.936 1.936 0 0 1-.256-.976c0-.616.24-1.104.719-1.463s1.163-.539 2.053-.539h1.669v-.116c0-.496-.137-.868-.41-1.116-.266-.248-.613-.373-1.04-.373-.377 0-.706.095-.989.283-.274.18-.44.449-.5.809h-1.361c.043-.463.197-.856.462-1.181a2.595 2.595 0 0 1 1.027-.758c.42-.179.877-.269 1.373-.269.89 0 1.58.235 2.067.706.488.462.732 1.095.732 1.899v3.915h-1.181l-.116-1.091c-.18.351-.44.646-.783.886-.342.24-.791.359-1.348.359zm.27-1.104c.368 0 .676-.085.924-.256.257-.18.454-.415.59-.706a2.71 2.71 0 0 0 .27-.963h-1.515c-.539 0-.924.094-1.155.283a.886.886 0 0 0-.334.705c0 .291.107.522.321.694.223.162.522.243.899.243zm4.744.95v-6.366h1.206l.103 1.116c.197-.393.484-.701.86-.924a2.52 2.52 0 0 1 1.322-.346c.77 0 1.374.239 1.81.719.445.479.668 1.193.668 2.143v3.658h-1.348v-3.517c0-1.232-.505-1.848-1.515-1.848-.505 0-.924.18-1.258.539-.325.359-.488.873-.488 1.54v3.286h-1.36zm10.587.154a3.343 3.343 0 0 1-1.681-.423 3.096 3.096 0 0 1-1.155-1.168c-.274-.505-.411-1.087-.411-1.746s.137-1.236.41-1.733a3.068 3.068 0 0 1 1.156-1.181 3.343 3.343 0 0 1 1.681-.423c.788 0 1.447.205 1.977.616.54.411.886.967 1.04 1.669h-1.425a1.34 1.34 0 0 0-.565-.822 1.787 1.787 0 0 0-1.026-.295c-.334 0-.642.085-.925.257a1.76 1.76 0 0 0-.68.731c-.171.317-.257.71-.257 1.181 0 .471.086.869.257 1.194.171.316.398.56.68.731.283.172.59.257.924.257.394 0 .736-.098 1.027-.295.291-.197.48-.475.565-.834h1.425a2.756 2.756 0 0 1-1.027 1.655c-.54.42-1.202.629-1.99.629zm7.47 0c-.624 0-1.18-.137-1.668-.41a3.032 3.032 0 0 1-1.13-1.168c-.274-.497-.41-1.074-.41-1.733 0-.668.132-1.254.397-1.759.274-.505.65-.898 1.13-1.181.488-.282 1.052-.423 1.694-.423.625 0 1.168.141 1.63.423.463.274.822.642 1.079 1.104a3.1 3.1 0 0 1 .385 1.528c0 .085-.005.179-.013.282 0 .094-.004.201-.013.321h-4.955c.043.616.244 1.087.604 1.412a1.89 1.89 0 0 0 1.27.475c.386 0 .706-.086.963-.257a1.62 1.62 0 0 0 .59-.719h1.361a2.876 2.876 0 0 1-1.027 1.502c-.505.402-1.133.603-1.887.603zm0-5.558c-.453 0-.855.137-1.206.411-.351.265-.565.668-.642 1.207h3.594c-.026-.497-.201-.89-.526-1.181-.325-.291-.732-.437-1.22-.437z"/><rect width="55.293" height="55.293" x="115.522" y="130.586" fill="#87EA5C" rx="27.646"/><path fill="#083400" d="M138.363 149.332a2.014 2.014 0 0 0-2.014 2.013v13.868c0 1.112.902 2.013 2.014 2.013h6.71a2.014 2.014 0 0 0 2.014-1.994v-1.361a.672.672 0 0 0-.671-.671c-.406 0-.662-.109-.838-.251-.187-.15-.34-.381-.458-.706-.244-.676-.27-1.567-.27-2.398a.671.671 0 0 0-.181-.458l-.147-.158c-.081-.088-.084-.092-.152-.156a60.278 60.278 0 0 1-1.059-1.045c-.419-.419-.651-.773-.727-1.044a.553.553 0 0 1-.014-.292.634.634 0 0 1 .183-.288.629.629 0 0 1 .288-.183.545.545 0 0 1 .29.014c.271.077.625.309 1.044.729.483.483.942.937 1.353 1.343.679.672 1.229 1.216 1.539 1.548a.672.672 0 0 0 .981-.915 45.347 45.347 0 0 0-1.162-1.176v-3.01l2.543 2.542c.377.378.589.89.589 1.424v7.835a.671.671 0 0 0 1.342 0v-7.835c0-.89-.353-1.744-.982-2.373l-3.492-3.491v-1.511a2.013 2.013 0 0 0-2.013-2.013h-6.71zm6.374 14.663c.287.231.624.392 1.008.477v.07h-.671a.672.672 0 0 0-.672.671v.671h-1.342v-.671c0-.799.466-1.49 1.141-1.815.143.219.319.423.536.597zm-1.228-3.886c.001.227.006.471.02.725a3.131 3.131 0 1 1-1.387-5.658 2.206 2.206 0 0 0-.338.279 1.966 1.966 0 0 0-.534.904c-.087.339-.066.675.022.987.169.603.595 1.156 1.071 1.631.79.79 1.005.996 1.087 1.074l.012.011.007.006.004.003.032.035.004.003zm-4.475-9.435h1.342v.67a2.013 2.013 0 0 1-2.013 2.013h-.672v-1.342h.672a.67.67 0 0 0 .671-.671v-.67zm4.026 0h1.342v.67c0 .371.301.671.672.671h.67v1.342h-.67a2.014 2.014 0 0 1-2.014-2.013v-.67zm-2.684 15.21h-1.342v-.671c0-.37-.3-.671-.671-.671h-.672V163.2h.672c1.112 0 2.013.901 2.013 2.013v.671z"/><path fill="#000" d="M120.119 207.777v-8.985h1.361v7.907h4.082v1.078h-5.443zm9.558.154c-.625 0-1.181-.137-1.669-.41a3.033 3.033 0 0 1-1.129-1.168c-.274-.497-.411-1.074-.411-1.733 0-.668.133-1.254.398-1.759.274-.505.65-.898 1.13-1.181.487-.282 1.052-.423 1.694-.423.625 0 1.168.141 1.63.423a2.9 2.9 0 0 1 1.078 1.104c.257.462.385.971.385 1.528 0 .085-.004.179-.012.282 0 .094-.005.201-.013.321h-4.955c.043.616.244 1.087.603 1.412a1.89 1.89 0 0 0 1.271.475c.385 0 .706-.086.963-.257.265-.18.462-.419.59-.719h1.361a2.878 2.878 0 0 1-1.027 1.502c-.505.402-1.134.603-1.887.603zm0-5.558c-.453 0-.856.137-1.206.411-.351.265-.565.668-.642 1.207h3.594c-.026-.497-.201-.89-.527-1.181-.325-.291-.731-.437-1.219-.437zm4.518 5.404v-6.366h1.207l.102 1.116c.197-.393.484-.701.86-.924a2.52 2.52 0 0 1 1.322-.346c.771 0 1.374.239 1.81.719.445.479.668 1.193.668 2.143v3.658h-1.348v-3.517c0-1.232-.505-1.848-1.515-1.848-.505 0-.924.18-1.258.539-.325.359-.487.873-.487 1.54v3.286h-1.361zm10.472.154c-.616 0-1.159-.145-1.63-.436a3.028 3.028 0 0 1-1.104-1.194c-.265-.505-.398-1.078-.398-1.72 0-.642.133-1.211.398-1.707a2.94 2.94 0 0 1 1.104-1.181c.479-.291 1.027-.436 1.643-.436.505 0 .946.098 1.322.295.385.197.685.475.899.834v-3.85h1.36v9.241h-1.219l-.141-.988a2.933 2.933 0 0 1-.848.796c-.359.231-.821.346-1.386.346zm.244-1.181c.582 0 1.057-.201 1.425-.603.376-.402.565-.92.565-1.553 0-.642-.189-1.159-.565-1.553-.368-.402-.843-.603-1.425-.603-.582 0-1.061.201-1.438.603-.376.394-.564.911-.564 1.553 0 .419.085.792.256 1.117.171.325.407.582.706.77.308.18.655.269 1.04.269zm5.836-6.546a.923.923 0 0 1-.642-.231.817.817 0 0 1-.244-.603c0-.24.081-.437.244-.591a.897.897 0 0 1 .642-.243c.257 0 .466.081.629.243a.76.76 0 0 1 .256.591.798.798 0 0 1-.256.603.878.878 0 0 1-.629.231zm-.681 7.573v-6.366h1.361v6.366h-1.361zm3.157 0v-6.366h1.207l.102 1.116c.197-.393.484-.701.86-.924a2.523 2.523 0 0 1 1.323-.346c.77 0 1.373.239 1.809.719.445.479.668 1.193.668 2.143v3.658h-1.348v-3.517c0-1.232-.505-1.848-1.515-1.848-.504 0-.924.18-1.257.539-.326.359-.488.873-.488 1.54v3.286h-1.361zm10.177-1.951a3.5 3.5 0 0 1-.924-.115l-.552.539c.094.06.21.111.346.154.137.043.33.081.578.115.248.035.586.069 1.014.103.847.077 1.459.283 1.836.616.376.325.564.762.564 1.309 0 .377-.102.732-.308 1.066-.196.342-.509.616-.937.821-.419.214-.958.321-1.617.321-.89 0-1.613-.171-2.169-.513-.548-.334-.822-.843-.822-1.528 0-.265.069-.53.206-.795.145-.257.372-.501.68-.732a3.435 3.435 0 0 1-.475-.244 4.225 4.225 0 0 1-.347-.282v-.308l1.104-1.13c-.496-.428-.744-.988-.744-1.681 0-.42.098-.801.295-1.143.205-.351.501-.629.886-.834.385-.206.847-.308 1.386-.308.359 0 .693.051 1.001.154h2.375v.898l-1.13.064c.206.351.308.741.308 1.169 0 .427-.102.812-.308 1.155a2.13 2.13 0 0 1-.873.821c-.376.206-.834.308-1.373.308zm0-1.065c.394 0 .71-.103.95-.308.248-.214.372-.514.372-.899 0-.393-.124-.693-.372-.898-.24-.206-.556-.308-.95-.308-.402 0-.727.102-.976.308-.239.205-.359.505-.359.898 0 .385.12.685.359.899.249.205.574.308.976.308zm-1.707 3.825c0 .368.162.642.488.821.325.189.731.283 1.219.283.471 0 .851-.103 1.142-.308.291-.197.437-.462.437-.796a.844.844 0 0 0-.295-.642c-.197-.171-.569-.278-1.117-.321a11.164 11.164 0 0 1-1.091-.115c-.3.162-.505.338-.616.526a1.074 1.074 0 0 0-.167.552z"/><rect width="55.293" height="55.293" x="207.348" y="130.586" fill="#87EA5C" rx="27.646"/><path fill="#083400" d="M233.02 164.403a.74.74 0 0 1 .74-.741h2.469a.738.738 0 0 1 .74.741.738.738 0 0 1-.74.74h-2.469a.74.74 0 0 1-.74-.74z"/><path fill="#083400" fill-rule="evenodd" d="M229.07 152.307a2.96 2.96 0 0 1 2.962-2.962h5.925a2.96 2.96 0 0 1 2.962 2.962v11.849a2.96 2.96 0 0 1-2.962 2.962h-5.925a2.96 2.96 0 0 1-2.962-2.962v-11.849zm3.95-1.481v.741c0 .409.332.74.74.74h2.469a.741.741 0 0 0 .74-.74v-.741h.988a1.48 1.48 0 0 1 1.481 1.481v11.849a1.48 1.48 0 0 1-1.481 1.481h-5.925a1.481 1.481 0 0 1-1.481-1.481v-11.849a1.481 1.481 0 0 1 1.481-1.481h.988z" clip-rule="evenodd"/><path fill="#000" d="M221.058 207.777v-8.985h1.361v7.907h4.081v1.078h-5.442zm9.558.154a3.303 3.303 0 0 1-1.643-.41 3.126 3.126 0 0 1-1.143-1.168c-.282-.505-.423-1.091-.423-1.759 0-.667.141-1.249.423-1.746a3.075 3.075 0 0 1 1.168-1.168 3.198 3.198 0 0 1 1.63-.423c.608 0 1.151.141 1.631.423a2.99 2.99 0 0 1 1.155 1.168c.291.497.436 1.079.436 1.746 0 .668-.145 1.254-.436 1.759a3.106 3.106 0 0 1-1.155 1.168 3.308 3.308 0 0 1-1.643.41zm0-1.168a1.775 1.775 0 0 0 1.578-.962c.172-.326.257-.728.257-1.207 0-.479-.085-.877-.257-1.194a1.724 1.724 0 0 0-1.566-.975c-.325 0-.628.081-.911.244a1.788 1.788 0 0 0-.667.731c-.171.317-.257.715-.257 1.194s.086.881.257 1.207c.171.316.393.556.667.718.274.163.573.244.899.244zm6.862 1.168c-.539 0-.984-.089-1.335-.269-.351-.18-.612-.415-.783-.706a1.937 1.937 0 0 1-.257-.976c0-.616.24-1.104.719-1.463s1.164-.539 2.054-.539h1.669v-.116c0-.496-.137-.868-.411-1.116-.265-.248-.612-.373-1.04-.373-.376 0-.706.095-.988.283-.274.18-.441.449-.501.809h-1.36c.042-.463.196-.856.462-1.181a2.595 2.595 0 0 1 1.027-.758 3.46 3.46 0 0 1 1.373-.269c.89 0 1.579.235 2.067.706.487.462.731 1.095.731 1.899v3.915h-1.181l-.115-1.091c-.18.351-.441.646-.783.886s-.792.359-1.348.359zm.27-1.104c.368 0 .676-.085.924-.256.257-.18.453-.415.59-.706a2.71 2.71 0 0 0 .27-.963h-1.515c-.539 0-.924.094-1.155.283a.884.884 0 0 0-.334.705c0 .291.107.522.321.694.223.162.522.243.899.243zm7.645 1.104c-.617 0-1.16-.145-1.631-.436a3.033 3.033 0 0 1-1.103-1.194c-.266-.505-.398-1.078-.398-1.72 0-.642.132-1.211.398-1.707a2.945 2.945 0 0 1 1.103-1.181c.48-.291 1.027-.436 1.643-.436.505 0 .946.098 1.323.295.385.197.684.475.898.834v-3.85h1.361v9.241h-1.22l-.141-.988a2.93 2.93 0 0 1-.847.796c-.36.231-.822.346-1.386.346zm.243-1.181c.582 0 1.057-.201 1.425-.603.377-.402.565-.92.565-1.553 0-.642-.188-1.159-.565-1.553-.368-.402-.843-.603-1.425-.603-.581 0-1.061.201-1.437.603-.377.394-.565.911-.565 1.553 0 .419.086.792.257 1.117.171.325.406.582.706.77.308.18.654.269 1.039.269z"/><rect width="55.293" height="55.293" x="299.174" y="130.586" fill="#87EA5C" rx="27.646"/><path fill="#083400" d="M331.757 150.332a5.924 5.924 0 0 1 5.924 5.924v3.95a5.924 5.924 0 0 1-5.924 5.924h-9.874a5.924 5.924 0 0 1-5.924-5.924v-3.95a5.924 5.924 0 0 1 5.924-5.924h9.874zm-6.912 4.937h-1.974v1.975h-1.975v1.974h1.974l.001 1.975h1.974l-.001-1.975h1.976v-1.974h-1.975v-1.975zm7.899 3.949h-1.974v1.975h1.974v-1.975zm-1.974-3.949h-1.975v1.975h1.975v-1.975z"/><path fill="#000" d="M310.23 207.931c-.847 0-1.587-.192-2.221-.577a3.915 3.915 0 0 1-1.476-1.618c-.351-.693-.526-1.501-.526-2.426 0-.915.18-1.724.539-2.425a3.982 3.982 0 0 1 1.528-1.643c.667-.403 1.454-.604 2.361-.604 1.027 0 1.883.248 2.567.745.685.496 1.13 1.181 1.335 2.053h-1.54a1.979 1.979 0 0 0-.809-1.129c-.402-.274-.919-.411-1.553-.411-.941 0-1.681.304-2.22.911-.539.608-.809 1.447-.809 2.516 0 1.07.265 1.904.796 2.503.53.599 1.236.899 2.118.899.89 0 1.557-.253 2.002-.758.454-.504.719-1.176.796-2.015h-2.439V202.9h3.812v4.877h-1.245l-.115-1.322c-.3.471-.676.835-1.13 1.091-.453.257-1.044.385-1.771.385zm8.018 0c-.539 0-.984-.089-1.335-.269-.351-.18-.612-.415-.783-.706a1.937 1.937 0 0 1-.257-.976c0-.616.24-1.104.719-1.463s1.164-.539 2.054-.539h1.668v-.116c0-.496-.137-.868-.41-1.116-.266-.248-.612-.373-1.04-.373a1.74 1.74 0 0 0-.988.283c-.274.18-.441.449-.501.809h-1.361c.043-.463.197-.856.462-1.181a2.602 2.602 0 0 1 1.027-.758c.42-.179.877-.269 1.374-.269.89 0 1.579.235 2.066.706.488.462.732 1.095.732 1.899v3.915h-1.181l-.115-1.091c-.18.351-.441.646-.783.886-.343.24-.792.359-1.348.359zm.269-1.104c.368 0 .676-.085.925-.256.256-.18.453-.415.59-.706.145-.291.235-.612.27-.963h-1.515c-.539 0-.924.094-1.155.283a.884.884 0 0 0-.334.705c0 .291.107.522.321.694.222.162.522.243.898.243zm4.744.95v-6.366h1.207l.116.898c.205-.325.474-.582.808-.77a2.413 2.413 0 0 1 1.181-.282c1.01 0 1.712.398 2.105 1.193a2.52 2.52 0 0 1 .924-.872 2.623 2.623 0 0 1 1.271-.321c.796 0 1.421.239 1.874.719.454.479.68 1.193.68 2.143v3.658h-1.36v-3.517c0-1.232-.471-1.848-1.412-1.848-.479 0-.873.18-1.181.539-.3.359-.449.873-.449 1.54v3.286h-1.361v-3.517c0-1.232-.475-1.848-1.425-1.848-.47 0-.86.18-1.168.539-.299.359-.449.873-.449 1.54v3.286h-1.361zm14.736.154c-.625 0-1.181-.137-1.669-.41a3.033 3.033 0 0 1-1.129-1.168c-.274-.497-.411-1.074-.411-1.733 0-.668.133-1.254.398-1.759.274-.505.65-.898 1.13-1.181.487-.282 1.052-.423 1.694-.423.625 0 1.168.141 1.63.423a2.9 2.9 0 0 1 1.078 1.104c.257.462.385.971.385 1.528 0 .085-.004.179-.012.282 0 .094-.005.201-.013.321h-4.955c.043.616.244 1.087.603 1.412a1.89 1.89 0 0 0 1.271.475c.385 0 .706-.086.963-.257.265-.18.462-.419.59-.719h1.361a2.878 2.878 0 0 1-1.027 1.502c-.505.402-1.134.603-1.887.603zm0-5.558c-.453 0-.856.137-1.206.411-.351.265-.565.668-.642 1.207h3.594c-.026-.497-.201-.89-.526-1.181-.326-.291-.732-.437-1.22-.437zm7.06 5.558c-.805 0-1.468-.196-1.99-.59a2.212 2.212 0 0 1-.898-1.566h1.373c.068.291.231.543.488.757.257.206.595.308 1.014.308.411 0 .71-.085.898-.256.189-.172.283-.368.283-.591 0-.325-.133-.543-.398-.654-.257-.12-.616-.227-1.078-.321a8.567 8.567 0 0 1-1.079-.308 2.484 2.484 0 0 1-.885-.54c-.231-.239-.347-.56-.347-.962 0-.556.214-1.019.642-1.386.428-.377 1.027-.565 1.797-.565.71 0 1.284.171 1.72.513.445.342.706.826.783 1.451h-1.309a.935.935 0 0 0-.385-.642c-.206-.154-.484-.231-.835-.231-.342 0-.607.073-.796.218a.637.637 0 0 0-.282.539c0 .223.128.398.385.526.265.129.612.244 1.04.347a9.62 9.62 0 0 1 1.181.334c.368.119.663.299.885.539.223.239.334.59.334 1.052.009.582-.218 1.066-.68 1.451-.454.385-1.074.577-1.861.577z"/><g fill="#000" clip-path="url(#b)"><rect width="35.545" height="3.949" x="171.309" y="241.424" fill-opacity=".2" rx="1.975"/><rect width="17.773" height="3.949" x="171.309" y="241.424" rx="1.975"/></g><defs><clipPath id="a"><path fill="#fff" d="M316.946 37.52h19.747v19.747h-19.747z"/></clipPath><clipPath id="b"><rect width="35.545" height="3.949" x="171.309" y="241.424" fill="#fff" rx="1.975"/></clipPath></defs></svg>