<svg xmlns:xlink="http://www.w3.org/1999/xlink"  width="695" height="240" fill="none" xmlns="http://www.w3.org/2000/svg" id="svg407840843_30179"><path d="M81.262 92.937v-14.45H43.547v14.45H52.2v30.909h-8.653v14.45h37.715v-14.45h-8.653v-30.91h8.653Zm41.614 8.5c-2.331-.678-14.325-4.111-16.402-4.79-2.077-.678-3.772-1.653-3.772-2.882s1.907-2.543 5.764-2.543c12.164 0 18.007 7.502 18.007 7.502s.659.877.879 1.192h11.736V79.449H126.49v3.724c-.963-.665-8.067-5.301-19.084-5.301-14.537 0-22.633 7.544-22.633 18.818 0 11.274 10.215 15.936 13.055 17.123 2.839 1.186 13.944 4.323 18.691 5.806 4.747 1.484 6.484 2.543 6.484 3.306 0 .763-2.077 2.755-8.01 2.755-10.336 0-15.659-6.095-16.593-7.275v-.009a38.636 38.636 0 0 1-.764-1.047c-.137-.205-.454-.66-.675-.975H85.225v21.857H98.4v-4.565c1.533 1.021 9.38 5.916 18.797 5.916 10.511 0 23.904-4.578 23.904-18.861 0-14.283-15.894-18.606-18.225-19.284Zm51.681-23.767c-17.522 0-31.893 8.76-31.893 31.124 0 22.364 15.601 30.741 31.97 30.741s31.816-8.3 31.816-30.51-15.446-31.356-31.893-31.356Zm.154 46.956c-5.994 0-9.837-1.384-9.837-15.909s2.844-16.061 10.068-16.061c4.38 0 9.683.307 9.683 15.6 0 15.294-3.919 16.37-9.914 16.37ZM68.678 71.892a66.004 66.004 0 0 1 14.336-15.254 58.084 58.084 0 0 0 7.141 4.508c-4.204 4.686-7.97 9.877-8.594 10.746h2.522c1.514-2.04 4.646-6.145 7.948-9.784a65.437 65.437 0 0 0 11.448 4.33 86.443 86.443 0 0 0-2.344 5.454h2.192a86.399 86.399 0 0 1 2.162-4.932 73.153 73.153 0 0 0 15.928 2.053v2.88h2.034v-2.87a73.539 73.539 0 0 0 15.841-1.823 86.287 86.287 0 0 1 2.048 4.692h2.192a87.187 87.187 0 0 0-2.219-5.186 65.994 65.994 0 0 0 11.665-4.22c3.175 3.542 6.144 7.436 7.606 9.406h2.522c-.605-.842-4.176-5.766-8.234-10.343a58.445 58.445 0 0 0 7.908-4.911 66.005 66.005 0 0 1 14.336 15.254h2.447c-12.033-18.571-32.938-30.885-56.666-30.885-23.729 0-44.634 12.314-56.666 30.885h2.447Zm35.708-7.314a63.705 63.705 0 0 1-10.903-4.026c.468-.486.935-.957 1.398-1.403 4.715-4.547 12.471-9.54 14.171-10.615a25.126 25.126 0 0 0 4.486 1.907 131.81 131.81 0 0 0-6.344 9.141 59.17 59.17 0 0 0-2.808 4.996Zm17.031 2.4a71.273 71.273 0 0 1-15.006-1.887 56.078 56.078 0 0 1 2.501-4.42c3.064-4.838 5.828-8.47 6.749-9.651a31.33 31.33 0 0 0 5.756.793v15.165Zm2.034.01V51.837a31.78 31.78 0 0 0 5.716-.61 127.952 127.952 0 0 1 6.588 9.444 56.305 56.305 0 0 1 2.618 4.65 71.612 71.612 0 0 1-14.922 1.667Zm16.962-2.148a60.06 60.06 0 0 0-2.939-5.258 132.468 132.468 0 0 0-6.144-8.876 26.082 26.082 0 0 0 4.787-1.853c2.387 1.53 9.319 6.1 13.669 10.296a55.441 55.441 0 0 1 1.748 1.77 64.227 64.227 0 0 1-11.121 3.92Zm20.664-9.474a56.761 56.761 0 0 1-7.622 4.623 61.444 61.444 0 0 0-2.256-2.304c-4.069-3.924-10.128-8.041-13.097-9.974a18.584 18.584 0 0 0 2.753-2.164 65.237 65.237 0 0 1 20.222 9.82Zm-38.18-12.324c5.373 0 10.594.655 15.593 1.882-3.794 3.082-9.479 4.89-15.593 4.89-6.141 0-11.811-1.803-15.6-4.888a65.36 65.36 0 0 1 15.6-1.884Zm-17.958 2.505a18.228 18.228 0 0 0 2.196 1.796c-2.69 1.73-9.314 6.145-13.666 10.341a58.835 58.835 0 0 0-1.888 1.913 56.483 56.483 0 0 1-6.863-4.23 65.225 65.225 0 0 1 20.221-9.82Zm72.179 99.526a66.047 66.047 0 0 1-13.984 14.982 58.246 58.246 0 0 0-8.261-5.178c3.521-3.972 6.675-8.204 7.843-9.804h-2.534c-1.561 2.086-4.295 5.623-7.203 8.867a65.958 65.958 0 0 0-11.665-4.221 87.386 87.386 0 0 0 2.005-4.646h-2.198a87.067 87.067 0 0 1-1.829 4.153 73.604 73.604 0 0 0-15.842-1.819v-2.334h-2.034v2.343a73.175 73.175 0 0 0-15.93 2.05 88.067 88.067 0 0 1-1.943-4.393h-2.198a86.705 86.705 0 0 0 2.131 4.914 65.247 65.247 0 0 0-11.45 4.33c-3.033-3.343-5.92-7.077-7.543-9.244h-2.534c1.206 1.653 4.538 6.123 8.204 10.208a58.179 58.179 0 0 0-7.495 4.773 65.97 65.97 0 0 1-13.984-14.981H66.23c12.034 18.571 32.938 30.884 56.666 30.884 23.728 0 44.633-12.313 56.666-30.884h-2.444Zm-36.706 6.513a64.088 64.088 0 0 1 11.123 3.921 55.603 55.603 0 0 1-1.75 1.772c-4.337 4.182-11.247 8.742-13.651 10.284a25.916 25.916 0 0 0-4.795-1.856 132.393 132.393 0 0 0 6.133-8.861c1.091-1.722 2.08-3.537 2.94-5.26Zm-16.962-2.145a71.663 71.663 0 0 1 14.923 1.663 56.468 56.468 0 0 1-2.62 4.653 127.892 127.892 0 0 1-6.583 9.438 32.14 32.14 0 0 0-5.721-.603v-15.151h.001Zm-2.035.01v15.162a31.515 31.515 0 0 0-5.763.787c-.927-1.191-3.682-4.813-6.741-9.643a55.58 55.58 0 0 1-2.503-4.423 71.274 71.274 0 0 1 15.007-1.883Zm-17.031 2.397a59.404 59.404 0 0 0 2.808 4.998 131.57 131.57 0 0 0 6.342 9.137 24.814 24.814 0 0 0-4.486 1.909c-1.707-1.079-9.456-6.069-14.169-10.613-.463-.446-.93-.918-1.399-1.404a63.562 63.562 0 0 1 10.904-4.027Zm-20.036 9.482a56.257 56.257 0 0 1 7.228-4.502c.63.666 1.264 1.311 1.89 1.916 4.352 4.195 10.974 8.609 13.664 10.34a18.002 18.002 0 0 0-2.608 2.21 65.278 65.278 0 0 1-20.174-9.964Zm38.548 12.593a65.34 65.34 0 0 1-16.085-2.002c3.759-3.303 9.728-5.306 16.085-5.306 6.348 0 12.323 2.004 16.082 5.306a65.315 65.315 0 0 1-16.082 2.002Zm18.372-2.629a18.333 18.333 0 0 0-3.154-2.586c2.973-1.936 9.02-6.046 13.083-9.965.749-.722 1.506-1.5 2.257-2.306a56.695 56.695 0 0 1 7.989 4.893 65.238 65.238 0 0 1-20.175 9.964ZM38.453 187.886c-.066-1.188.055-2.288.363-3.3s.781-1.881 1.419-2.607a6.801 6.801 0 0 1 2.442-1.749c.968-.418 2.068-.627 3.3-.627 1.012 0 1.958.154 2.838.462a6.553 6.553 0 0 1 2.343 1.287 5.676 5.676 0 0 1 1.551 2.079c.396.836.594 1.804.594 2.904 0 1.034-.165 1.947-.495 2.739a7.738 7.738 0 0 1-1.254 2.145 11.05 11.05 0 0 1-1.815 1.683c-.682.506-1.386.99-2.112 1.452l-2.178 1.32c-.726.418-1.397.869-2.013 1.353a9.577 9.577 0 0 0-1.551 1.584 4.418 4.418 0 0 0-.825 1.914h12.012V203H37.793c.11-1.386.352-2.563.726-3.531.396-.99.891-1.848 1.485-2.574a11.05 11.05 0 0 1 2.013-1.914 28.79 28.79 0 0 1 2.343-1.551 82.316 82.316 0 0 0 2.607-1.683c.748-.528 1.364-1.056 1.848-1.584.506-.528.88-1.1 1.122-1.716.264-.616.396-1.331.396-2.145 0-.638-.121-1.21-.363-1.716a4.065 4.065 0 0 0-.99-1.353 4.022 4.022 0 0 0-1.419-.858 5.124 5.124 0 0 0-1.749-.297c-.814 0-1.518.176-2.112.528-.572.33-1.045.77-1.419 1.32a5.825 5.825 0 0 0-.825 1.881 8.233 8.233 0 0 0-.198 2.079h-2.805Zm33.682-5.478c-1.188 1.166-2.3 2.552-3.333 4.158a38.29 38.29 0 0 0-2.772 5.148 38.845 38.845 0 0 0-1.947 5.643 29.273 29.273 0 0 0-.924 5.643h-3.135a29.59 29.59 0 0 1 .957-5.775 33.798 33.798 0 0 1 2.013-5.412 34.702 34.702 0 0 1 2.805-4.917 36.94 36.94 0 0 1 3.465-4.257H56.988v-2.64h15.147v2.409Zm5.895 9.075c0 .88.023 1.87.067 2.97.066 1.078.242 2.101.528 3.069.308.946.792 1.749 1.452 2.409.66.66 1.584.99 2.772.99 1.188 0 2.112-.33 2.772-.99a5.661 5.661 0 0 0 1.419-2.409c.308-.968.484-1.991.528-3.069.066-1.1.099-2.09.099-2.97 0-.572-.011-1.199-.033-1.881 0-.704-.055-1.397-.165-2.079a12.505 12.505 0 0 0-.43-2.046 4.788 4.788 0 0 0-.824-1.716 4.011 4.011 0 0 0-1.353-1.221c-.55-.308-1.221-.462-2.013-.462-.792 0-1.463.154-2.013.462a4.343 4.343 0 0 0-1.386 1.221 5.652 5.652 0 0 0-.825 1.716c-.176.66-.32 1.342-.43 2.046a21.48 21.48 0 0 0-.164 2.079v1.881Zm-2.97.033c0-.858.023-1.749.067-2.673.044-.924.154-1.826.33-2.706.176-.88.429-1.716.759-2.508a6.656 6.656 0 0 1 1.353-2.079c.572-.594 1.287-1.067 2.145-1.419.88-.352 1.925-.528 3.135-.528 1.21 0 2.244.176 3.102.528.88.352 1.606.825 2.178 1.419a6.656 6.656 0 0 1 1.353 2.079c.33.792.583 1.628.759 2.508.176.88.286 1.782.33 2.706.044.924.066 1.815.066 2.673 0 .858-.022 1.749-.066 2.673a18.191 18.191 0 0 1-.33 2.706 13.27 13.27 0 0 1-.76 2.508 6.765 6.765 0 0 1-1.352 2.046c-.572.594-1.287 1.067-2.145 1.419-.858.33-1.903.495-3.135.495-1.21 0-2.255-.165-3.135-.495-.858-.352-1.573-.825-2.145-1.419a6.765 6.765 0 0 1-1.353-2.046 13.269 13.269 0 0 1-.76-2.508 18.191 18.191 0 0 1-.33-2.706 56.25 56.25 0 0 1-.065-2.673Zm21.308-.033c0 .88.022 1.87.066 2.97.066 1.078.242 2.101.528 3.069.308.946.792 1.749 1.452 2.409.66.66 1.584.99 2.772.99 1.188 0 2.112-.33 2.772-.99a5.661 5.661 0 0 0 1.419-2.409c.308-.968.484-1.991.528-3.069.066-1.1.099-2.09.099-2.97 0-.572-.011-1.199-.033-1.881 0-.704-.055-1.397-.165-2.079a12.505 12.505 0 0 0-.429-2.046 4.788 4.788 0 0 0-.825-1.716 4.011 4.011 0 0 0-1.353-1.221c-.55-.308-1.221-.462-2.013-.462-.792 0-1.463.154-2.013.462a4.343 4.343 0 0 0-1.386 1.221 5.652 5.652 0 0 0-.825 1.716c-.176.66-.32 1.342-.43 2.046a21.48 21.48 0 0 0-.164 2.079v1.881Zm-2.97.033c0-.858.022-1.749.066-2.673.044-.924.154-1.826.33-2.706.176-.88.429-1.716.759-2.508a6.656 6.656 0 0 1 1.353-2.079c.572-.594 1.287-1.067 2.145-1.419.88-.352 1.925-.528 3.135-.528 1.21 0 2.244.176 3.102.528.88.352 1.606.825 2.178 1.419a6.656 6.656 0 0 1 1.353 2.079c.33.792.583 1.628.759 2.508.176.88.286 1.782.33 2.706.044.924.066 1.815.066 2.673 0 .858-.022 1.749-.066 2.673a18.191 18.191 0 0 1-.33 2.706c-.176.88-.429 1.716-.759 2.508a6.765 6.765 0 0 1-1.353 2.046c-.572.594-1.287 1.067-2.145 1.419-.858.33-1.903.495-3.135.495-1.21 0-2.255-.165-3.135-.495-.858-.352-1.573-.825-2.145-1.419a6.765 6.765 0 0 1-1.353-2.046 13.269 13.269 0 0 1-.76-2.508 18.191 18.191 0 0 1-.33-2.706 56.25 56.25 0 0 1-.065-2.673ZM122.097 203h-2.805v-16.764h-6.072v-2.244c.792 0 1.562-.055 2.31-.165a6.405 6.405 0 0 0 2.013-.693 4.577 4.577 0 0 0 1.551-1.353c.418-.572.704-1.298.858-2.178h2.145V203Zm12.991-13.398h-3.663v-3.663h3.663v3.663Zm-3.663 9.735h3.663V203h-3.663v-3.663Zm7.897-11.451c-.066-1.188.055-2.288.363-3.3s.781-1.881 1.419-2.607a6.801 6.801 0 0 1 2.442-1.749c.968-.418 2.068-.627 3.3-.627 1.012 0 1.958.154 2.838.462a6.553 6.553 0 0 1 2.343 1.287 5.676 5.676 0 0 1 1.551 2.079c.396.836.594 1.804.594 2.904 0 1.034-.165 1.947-.495 2.739a7.738 7.738 0 0 1-1.254 2.145 11.05 11.05 0 0 1-1.815 1.683c-.682.506-1.386.99-2.112 1.452l-2.178 1.32c-.726.418-1.397.869-2.013 1.353a9.577 9.577 0 0 0-1.551 1.584 4.418 4.418 0 0 0-.825 1.914h12.012V203h-15.279c.11-1.386.352-2.563.726-3.531.396-.99.891-1.848 1.485-2.574a11.05 11.05 0 0 1 2.013-1.914 28.79 28.79 0 0 1 2.343-1.551 82.316 82.316 0 0 0 2.607-1.683c.748-.528 1.364-1.056 1.848-1.584.506-.528.88-1.1 1.122-1.716.264-.616.396-1.331.396-2.145 0-.638-.121-1.21-.363-1.716a4.065 4.065 0 0 0-.99-1.353 4.022 4.022 0 0 0-1.419-.858 5.124 5.124 0 0 0-1.749-.297c-.814 0-1.518.176-2.112.528-.572.33-1.045.77-1.419 1.32a5.825 5.825 0 0 0-.825 1.881 8.233 8.233 0 0 0-.198 2.079h-2.805Zm21.241 3.597c0 .88.022 1.87.066 2.97.066 1.078.242 2.101.528 3.069.308.946.792 1.749 1.452 2.409.66.66 1.584.99 2.772.99 1.188 0 2.112-.33 2.772-.99a5.661 5.661 0 0 0 1.419-2.409c.308-.968.484-1.991.528-3.069.066-1.1.099-2.09.099-2.97 0-.572-.011-1.199-.033-1.881 0-.704-.055-1.397-.165-2.079a12.505 12.505 0 0 0-.429-2.046 4.788 4.788 0 0 0-.825-1.716 4.011 4.011 0 0 0-1.353-1.221c-.55-.308-1.221-.462-2.013-.462-.792 0-1.463.154-2.013.462a4.343 4.343 0 0 0-1.386 1.221 5.652 5.652 0 0 0-.825 1.716c-.176.66-.319 1.342-.429 2.046a21.48 21.48 0 0 0-.165 2.079v1.881Zm-2.97.033c0-.858.022-1.749.066-2.673.044-.924.154-1.826.33-2.706.176-.88.429-1.716.759-2.508a6.656 6.656 0 0 1 1.353-2.079c.572-.594 1.287-1.067 2.145-1.419.88-.352 1.925-.528 3.135-.528 1.21 0 2.244.176 3.102.528.88.352 1.606.825 2.178 1.419a6.656 6.656 0 0 1 1.353 2.079c.33.792.583 1.628.759 2.508.176.88.286 1.782.33 2.706.044.924.066 1.815.066 2.673 0 .858-.022 1.749-.066 2.673a18.191 18.191 0 0 1-.33 2.706c-.176.88-.429 1.716-.759 2.508a6.765 6.765 0 0 1-1.353 2.046c-.572.594-1.287 1.067-2.145 1.419-.858.33-1.903.495-3.135.495-1.21 0-2.255-.165-3.135-.495-.858-.352-1.573-.825-2.145-1.419a6.765 6.765 0 0 1-1.353-2.046 13.269 13.269 0 0 1-.759-2.508 18.191 18.191 0 0 1-.33-2.706 56.25 56.25 0 0 1-.066-2.673Zm18.403-3.63c-.066-1.188.055-2.288.363-3.3s.781-1.881 1.419-2.607a6.801 6.801 0 0 1 2.442-1.749c.968-.418 2.068-.627 3.3-.627 1.012 0 1.958.154 2.838.462a6.553 6.553 0 0 1 2.343 1.287 5.676 5.676 0 0 1 1.551 2.079c.396.836.594 1.804.594 2.904 0 1.034-.165 1.947-.495 2.739a7.738 7.738 0 0 1-1.254 2.145 11.05 11.05 0 0 1-1.815 1.683c-.682.506-1.386.99-2.112 1.452l-2.178 1.32c-.726.418-1.397.869-2.013 1.353a9.577 9.577 0 0 0-1.551 1.584 4.418 4.418 0 0 0-.825 1.914h12.012V203h-15.279c.11-1.386.352-2.563.726-3.531.396-.99.891-1.848 1.485-2.574a11.05 11.05 0 0 1 2.013-1.914 28.79 28.79 0 0 1 2.343-1.551 82.316 82.316 0 0 0 2.607-1.683c.748-.528 1.364-1.056 1.848-1.584.506-.528.88-1.1 1.122-1.716.264-.616.396-1.331.396-2.145 0-.638-.121-1.21-.363-1.716a4.065 4.065 0 0 0-.99-1.353 4.022 4.022 0 0 0-1.419-.858 5.124 5.124 0 0 0-1.749-.297c-.814 0-1.518.176-2.112.528-.572.33-1.045.77-1.419 1.32a5.825 5.825 0 0 0-.825 1.881 8.233 8.233 0 0 0-.198 2.079h-2.805Zm18.337 0c-.066-1.188.055-2.288.363-3.3s.781-1.881 1.419-2.607a6.801 6.801 0 0 1 2.442-1.749c.968-.418 2.068-.627 3.3-.627 1.012 0 1.958.154 2.838.462a6.553 6.553 0 0 1 2.343 1.287 5.676 5.676 0 0 1 1.551 2.079c.396.836.594 1.804.594 2.904 0 1.034-.165 1.947-.495 2.739a7.738 7.738 0 0 1-1.254 2.145 11.05 11.05 0 0 1-1.815 1.683c-.682.506-1.386.99-2.112 1.452l-2.178 1.32c-.726.418-1.397.869-2.013 1.353a9.577 9.577 0 0 0-1.551 1.584 4.418 4.418 0 0 0-.825 1.914h12.012V203h-15.279c.11-1.386.352-2.563.726-3.531.396-.99.891-1.848 1.485-2.574a11.05 11.05 0 0 1 2.013-1.914 28.79 28.79 0 0 1 2.343-1.551 82.316 82.316 0 0 0 2.607-1.683c.748-.528 1.364-1.056 1.848-1.584.506-.528.88-1.1 1.122-1.716.264-.616.396-1.331.396-2.145 0-.638-.121-1.21-.363-1.716a4.065 4.065 0 0 0-.99-1.353 4.022 4.022 0 0 0-1.419-.858 5.124 5.124 0 0 0-1.749-.297c-.814 0-1.518.176-2.112.528-.572.33-1.045.77-1.419 1.32a5.825 5.825 0 0 0-.825 1.881 8.233 8.233 0 0 0-.198 2.079h-2.805Z" fill="#fff" fill-opacity=".64"></path><g clip-path="url(#svg407840843_30179_a)" fill="#fff"><path d="M446.467 60.218c-10.853-5.925-23.114-8.624-35.434-7.861a65.317 65.317 0 0 0-34.144 12.379 64.692 64.692 0 0 0-22.47 29.098c-2.346 6.043-3.813 12.379-4.282 18.832h16.192a49.06 49.06 0 0 1 15.488-31.445c8.858-8.214 20.416-12.907 32.501-13.083a49.181 49.181 0 0 1 33.675 12.496c9.21 8.272 15.018 19.712 16.192 32.032h16.133c-1.056-17.659-10.971-39.893-33.851-52.448Zm-26.634 41.184c-1.056 1.291-2.464 2.171-4.107 2.64a7.696 7.696 0 0 1-4.869-.176 6.615 6.615 0 0 1-3.11-1.76 7.003 7.003 0 0 1-1.877-2.992 7.137 7.137 0 0 1-.176-3.52c.235-1.173.763-2.288 1.525-3.168 1.408-1.525 3.344-2.523 5.456-2.698 2.112-.176 4.166.41 5.808 1.7.528.412.998.88 1.467 1.35.587-.41 1.173-.88 1.877-1.35-.762-1.114-1.76-2.052-2.933-2.698-2.171-1.173-4.635-1.642-7.099-1.29-1.29.117-2.581.528-3.754 1.114a10.186 10.186 0 0 0-2.992 2.464 9.161 9.161 0 0 0-1.76 3.344 9.05 9.05 0 0 0-.235 3.755c.176 1.584.763 3.168 1.701 4.458a9.197 9.197 0 0 0 3.696 2.992c1.76.822 3.755 1.115 5.691.939 2.347-.059 4.635-.997 6.453-2.523.47-.41.822-.88 1.291-1.29l-1.995-1.408s0 .058-.058.117Zm14.842 4.811h2.816l2.934-5.867h7.802l2.992 5.867h2.758c-3.227-6.512-6.395-12.965-9.622-19.419-3.226 6.454-6.453 12.907-9.68 19.419Zm6.982-8.272c.88-1.819 1.818-3.579 2.698-5.398.939 1.82 1.819 3.638 2.699 5.398h-5.397Zm-64.944 8.272h2.816a276.449 276.449 0 0 0 2.933-5.867h7.803c.997 1.936 1.994 3.931 2.992 5.867h2.757l-9.621-19.477c-3.227 6.511-6.454 12.965-9.68 19.477Zm6.922-8.272c.88-1.819 1.819-3.579 2.758-5.456.938 1.877 1.818 3.637 2.698 5.456h-5.456Zm53.328-2.464c.411-.645.704-1.408.763-2.17a5.073 5.073 0 0 0-.352-2.289 5.293 5.293 0 0 0-1.349-1.877 4.592 4.592 0 0 0-2.054-1.056 8.657 8.657 0 0 0-2.757-.293c-1.877-.06-3.755 0-5.691 0h-.293v18.421h2.464v-8.272h1.819c1.173-.059 2.405-.059 3.578-.176.763-.059 1.526-.293 2.23-.645.645-.47 1.232-.998 1.642-1.643Zm-1.994-1.76c-.176.528-.528.939-.998 1.232-.469.293-.997.47-1.525.47-1.525.058-3.109 0-4.693 0V90.02c1.642.058 3.226.058 4.81.117.411 0 .822.117 1.174.293.352.177.704.47.938.822.235.352.352.763.411 1.173.059.47 0 .939-.117 1.29Zm-37.488 12.437h2.522V87.733h-2.522v18.421Zm166.613 48.107h4.341v13.669h4.87v-13.669h4.341v-3.814h-13.493v3.814h-.059Zm14.901 13.61h4.87v-17.482h-4.87v17.482Zm22.822 0h4.869v-17.482h-4.869v17.482Zm-14.902-14.021v14.021h4.87v-6.922h5.984v-3.579h-5.984v-3.52h7.802v-3.461h-12.613l-.059 3.461Zm22.822 0v14.08h12.613v-3.461h-7.803v-3.931h5.984v-3.579h-5.984v-3.109h7.803v-3.461h-12.613v3.461Zm-76.854 14.08h12.614v-3.461h-7.803v-3.931h5.984v-3.579h-5.984v-3.109h7.803v-3.461h-12.614v17.541Zm99.323-17.541h-7.216v17.482h7.216a7.82 7.82 0 0 0 5.515-2.288 7.82 7.82 0 0 0 2.288-5.514v-1.936a7.822 7.822 0 0 0-2.288-5.515 8.02 8.02 0 0 0-5.515-2.229Zm-2.405 14.08v-10.56c1.701 0 5.28-.763 5.28 5.28.058 5.984-3.52 5.28-5.28 5.28Zm-67.056-8.624c0-.704-.118-1.408-.411-2.112a7.077 7.077 0 0 0-1.173-1.76c-.528-.528-1.115-.88-1.76-1.174-.646-.293-1.35-.41-2.112-.41h-9.094v17.482h4.87v-6.57h1.76l2.698 6.57h5.456l-2.992-7.274c.822-.47 1.526-1.174 2.054-1.995.469-.821.704-1.76.704-2.757Zm-6.806 1.994h-2.874v-3.989h2.874c.528 0 1.056.235 1.408.587.352.352.587.88.587 1.408 0 .528-.235 1.056-.587 1.408-.352.41-.88.586-1.408.586Zm-31.973-25.52h6.629v-18.714h5.926v-1.467l5.69 10.267v9.973h6.63v-9.973l7.802-14.022h-7.098l-3.99 7.51-3.989-7.51h-23.525v5.28h5.925v18.656Zm72.629-19.242v-4.752H579.23v23.994h17.365v-4.693h-10.677v-5.397h8.213v-4.928h-8.213v-4.224h10.677Zm-72.922 36.842h-.646c-2.053 0-3.989.822-5.456 2.23-1.466 1.466-2.288 3.402-2.288 5.456v2.992c0 .997.176 1.994.587 2.933a8.91 8.91 0 0 0 1.643 2.523 7.222 7.222 0 0 0 2.522 1.642c.939.411 1.936.587 2.934.587h.645c1.877 0 3.637-.763 4.987-2.053 1.349-1.291 2.053-3.11 2.053-4.987h-4.635c-.352 2.581-1.525 3.461-2.933 3.461-1.701 0-3.051-1.232-3.051-5.338 0-4.048 1.35-5.867 3.051-5.867 1.349 0 2.523 1.232 2.933 3.813h4.635v-.352a7.108 7.108 0 0 0-2.053-4.986c-1.232-1.291-3.051-2.054-4.928-2.054Zm57.082-57.61h.88a9.455 9.455 0 0 0 6.688-2.757c1.76-1.76 2.816-4.166 2.816-6.689h-6.218c-.47 3.462-2.054 4.635-3.931 4.635-2.288 0-4.107-1.701-4.107-7.157 0-5.456 1.819-7.92 4.107-7.92 1.819 0 3.403 1.642 3.931 5.104h6.218v-.528c0-2.523-.997-4.928-2.757-6.747-1.76-1.76-4.224-2.757-6.747-2.757h-.88a10.393 10.393 0 0 0-7.333 3.05 10.394 10.394 0 0 0-3.051 7.334v4.048c0 1.35.294 2.699.763 3.99.528 1.231 1.291 2.404 2.229 3.343.939.939 2.112 1.702 3.344 2.23 1.291.586 2.64.82 4.048.82Zm-6.805 29.509c.235-.176.469-.352.645-.528.059-.059.118-.059.118-.117.176-.176.293-.294.41-.47a1.27 1.27 0 0 0 .235-.293c.117-.117.176-.235.235-.352.117-.117.234-.293.293-.469a7.65 7.65 0 0 0 .997-3.755 7.02 7.02 0 0 0-.586-2.875 6.761 6.761 0 0 0-1.643-2.405c-.704-.704-1.525-1.232-2.405-1.643-.88-.352-1.878-.586-2.875-.586h-12.496v23.994h6.629v-8.976h5.808c1.76 0 3.344-.528 4.635-1.525Zm-10.267-3.285v-5.456h3.931a2.76 2.76 0 0 1 1.936.821 2.76 2.76 0 0 1 .821 1.936 2.76 2.76 0 0 1-.821 1.936 2.76 2.76 0 0 1-1.936.821h-3.931v-.058Zm52.624-10.208h-6.629v23.994h6.629v-23.994Zm4.283 23.994h6.629v-23.994h-6.629v23.994Zm-63.536-40.01h1.291c1.466 0 2.874-.352 4.224-.998 1.29-.645 2.464-1.584 3.344-2.757a10.244 10.244 0 0 0 2.405-6.63v-4.047c0-2.405-.821-4.752-2.405-6.63-.88-1.173-2.054-2.112-3.344-2.757a9.52 9.52 0 0 0-4.224-.997h-1.291a9.517 9.517 0 0 0-4.224.997c-1.291.645-2.464 1.584-3.344 2.758-1.525 1.877-2.405 4.224-2.405 6.629v4.048c0 2.405.821 4.752 2.405 6.63.88 1.172 2.053 2.111 3.344 2.756a9.518 9.518 0 0 0 4.224.998Zm-2.757-16.896c.117-.41.293-.763.469-1.056.059-.059.059-.117.117-.176.059-.059.118-.176.176-.235.059-.058.059-.117.118-.176l.176-.176c.058-.058.117-.117.117-.176l.176-.176.117-.117c.118-.059.235-.176.294-.235l.058-.058c.118-.06.176-.118.294-.118.058 0 .058-.058.117-.058.117-.06.176-.06.293-.118h.118c.117 0 .234-.058.352-.058h.938c.118 0 .235.058.352.058h.118c.117 0 .176.059.293.118.059 0 .059 0 .117.058.118.059.176.118.294.118l.058.058c.118.059.235.176.294.235l.117.117.176.176c.059.059.117.117.117.176l.176.176c.059.059.118.118.118.176.058.059.117.176.176.235.058.059.058.117.117.176.176.352.352.704.469 1.056.528 1.584.763 3.227.704 4.928.059 1.35-.117 2.699-.469 4.048v.117a2.857 2.857 0 0 1-.176.41c-.117.294-.293.646-.411.88 0 0 0 .06-.058.06-.059.117-.118.234-.235.293v.058c-.059.118-.176.177-.235.294-.234.234-.528.47-.821.645-.059.059-.117.059-.235.117-.058 0-.117.06-.117.06-.059 0-.117.058-.176.058-.059 0-.117.058-.235.058-.058 0-.117 0-.117.06-.117 0-.176.058-.293.058h-.939c-.117 0-.176 0-.293-.059-.059 0-.118 0-.118-.059-.058 0-.117-.058-.234-.058-.059 0-.118-.059-.176-.059-.059 0-.118-.059-.176-.059-.059 0-.118-.058-.235-.117-.293-.176-.587-.352-.821-.645a1.281 1.281 0 0 1-.235-.294v-.058c-.059-.118-.117-.176-.235-.293 0 0 0-.06-.058-.06a5.885 5.885 0 0 1-.411-.88c-.059-.117-.117-.292-.176-.41v-.117a13.415 13.415 0 0 1-.469-4.048c-.235-1.643 0-3.344.528-4.928Zm-19.83 12.203c-3.285 0-4.282-3.227-4.4-3.755l-3.285.763-2.757.528c.586 3.109 3.109 7.509 10.266 7.509 9.211 0 10.091-6.102 10.091-8.037 0-4.987-4.107-6.278-8.624-7.803-2.816-.939-3.579-1.29-3.579-2.523 0-1.232 1.174-1.936 2.64-1.936 1.936 0 3.051 1.056 3.872 2.816l5.339-1.877c-1.056-3.05-3.109-5.925-9.445-5.925s-9.094 4.047-9.094 7.098c0 4.224 1.995 6.043 6.982 7.744 3.696 1.29 5.28 1.643 5.28 3.285-.059 1.233-1.115 2.112-3.286 2.112Zm78.614-14.784c1.818.528 2.053 2.405 1.466 3.696-.586 1.349-3.109 3.52-4.341 4.458-1.936 1.467-7.568 5.808-7.568 5.808v5.28h18.832v-5.28h-10.384s1.525-1.056 5.045-3.578c3.52-2.523 4.928-5.456 4.928-7.451 0-1.995-.058-8.272-9.034-8.272s-9.739 8.037-9.739 8.037l5.867 1.701c.645-4.458 3.578-4.81 4.928-4.4Z" fill-opacity=".8"></path><path d="M416.195 166.288c-10.443.293-20.768-2.875-29.216-8.976-11.147-7.979-17.835-18.774-20.24-32.267H350.43c3.402 32.149 32.09 59.899 68.933 57.611 33.968-2.054 57.963-29.275 60.72-57.611h-16.309c-1.819 11.381-7.627 21.707-16.31 29.216-8.682 7.568-19.77 11.792-31.269 12.027Zm-6.16-18.011c1.291.528 2.699.821 4.107.763 1.408 0 2.816-.352 4.106-.939 1.174-.469 2.23-1.291 3.11-2.229.821-.998 1.466-2.171 1.76-3.403.528-1.995.528-4.048-.118-6.043a8.253 8.253 0 0 0-1.525-2.933 7.287 7.287 0 0 0-2.581-2.053 9.557 9.557 0 0 0-4.752-1.056h-1.056c-.235 0-.411.058-.646.058-1.349.118-2.698.646-3.872 1.408a8.407 8.407 0 0 0-2.757 2.992c-.939 1.702-1.291 3.638-1.173 5.515.234 3.696 1.936 6.453 5.397 7.92Zm1.584-14.608a6.844 6.844 0 0 1 3.755-.352c1.232.293 2.405.939 3.226 1.936 1.056 1.408 1.584 3.109 1.467 4.869a7.026 7.026 0 0 1-2.171 4.635c-2.757 2.464-8.565 1.936-9.797-3.344-.117-.528-.176-1.056-.176-1.291-.117-2.992 1.291-5.456 3.696-6.453Zm-15.429 12.437c-.704 0-1.467-.117-2.112-.469a4.566 4.566 0 0 1-1.584-1.408l-2.288 2.464c.586.704 1.349 1.232 2.17 1.584 1.643.704 3.403.88 5.163.587 2.875-.47 4.752-2.347 4.928-5.104.117-.939-.059-1.936-.528-2.758-.469-.821-1.173-1.525-2.053-1.936-.763-.352-1.584-.645-2.347-.938-.88-.294-1.76-.704-2.64-1.115-.411-.235-.704-.587-.821-.997-.118-.411-.118-.88.058-1.291.118-.293.294-.587.528-.821.235-.235.528-.352.822-.47a3.924 3.924 0 0 1 2.464-.117c.821.235 1.525.645 2.053 1.291.763-.822 1.525-1.584 2.288-2.406-.176-.176-.293-.293-.469-.352-1.408-.997-3.11-1.525-4.811-1.466-1.467 0-2.933.41-4.224 1.173-2.875 1.76-3.168 6.864.469 8.507.88.41 1.819.645 2.699.997a15.4 15.4 0 0 1 2.229 1.056c.235.176.47.411.587.704.176.293.235.587.235.88 0 .293-.059.645-.176.939-.118.293-.352.528-.587.762-.411.47-1.232.704-2.053.704Zm31.504.118c2.933 2.874 6.394 3.402 10.208 2.229 1.408-.469 2.581-1.408 3.402-2.581l-2.64-1.878c-.117.118-.176.176-.234.294-2.582 3.109-6.688 1.936-8.39-.235a6.86 6.86 0 0 1-1.232-2.64 7.048 7.048 0 0 1-.117-2.933 6.081 6.081 0 0 1 1.995-3.814c1.76-1.584 5.28-2.346 7.568.176.058.059.117.118.176.118l2.464-1.819a7.028 7.028 0 0 0-2.406-1.936c-1.701-.821-3.637-1.056-5.456-.763-1.173.118-2.288.528-3.285 1.115a8.748 8.748 0 0 0-2.581 2.288 9.778 9.778 0 0 0-1.819 6.453c-.059 2.23.821 4.342 2.347 5.926Zm-6.63 6.57c-.41.352-.645.88-.704 1.408a2.102 2.102 0 0 0 .411 1.526c.176.234.411.41.704.586.293.118.587.235.88.235.293.059.587 0 .88-.117.293-.118.528-.294.704-.528.059 1.056-.117 1.642-.704 1.877-.411.176-.821.235-1.232.117-.411-.117-.821-.352-1.056-.645-.176.176-.352.352-.469.587.352.352.762.586 1.232.704.469.117.938.117 1.408 0 .352-.059.704-.235.938-.47.294-.234.47-.586.528-.938.059-.294.118-.587.118-.88v-3.755h-.646c0 .176 0 .352-.058.587-.352-.411-.822-.646-1.408-.704a2.228 2.228 0 0 0-1.526.41Zm2.875 1.643c0 .176 0 .411-.117.587a1.27 1.27 0 0 1-.294.469 3.231 3.231 0 0 1-.469.352 1.728 1.728 0 0 1-.587.117c-.352 0-.704-.176-.997-.41-.235-.294-.411-.646-.411-.998 0-.176 0-.352.059-.528.059-.176.176-.352.293-.469a1.28 1.28 0 0 1 .47-.293c.176-.059.352-.118.528-.118.176 0 .352.059.528.118.176.058.352.176.469.293.117.117.235.293.293.469.176 0 .235.176.235.411Zm-22.411-1.995h-.645v5.984h.645v-2.522c1.056.88 2.112.938 2.934.176.352-.352.586-.88.645-1.408.059-.528-.117-1.056-.411-1.467-.293-.411-.704-.645-1.173-.763-.352-.117-.704-.058-1.056 0-.352.059-.645.294-.939.587v-.587Zm1.467.528c.176 0 .411.059.587.118a.907.907 0 0 1 .469.352c.117.117.235.293.293.469.059.176.118.352.059.587 0 .176 0 .352-.059.528a1.268 1.268 0 0 1-.293.469 3.231 3.231 0 0 1-.469.352c-.176.059-.352.117-.528.117-.176 0-.411-.058-.587-.117a1.281 1.281 0 0 1-.469-.293 1.283 1.283 0 0 1-.294-.47c-.058-.176-.117-.352-.117-.586 0-.176 0-.411.117-.587a1.27 1.27 0 0 1 .294-.469c.117-.118.293-.235.469-.352.117-.059.293-.118.528-.118Zm9.504 1.467c0 .293.059.587.117.821.118.294.294.528.47.704.234.176.469.352.704.47.293.117.528.117.821.117.293 0 .587 0 .821-.117.294-.118.528-.235.704-.47.176-.234.352-.41.47-.704.117-.293.176-.528.117-.821 0-.293 0-.587-.117-.821-.118-.294-.235-.528-.47-.704-.176-.176-.469-.352-.704-.47-.293-.117-.528-.117-.821-.117-.293 0-.587 0-.821.117-.294.118-.528.235-.704.47-.235.176-.352.41-.47.704a3.492 3.492 0 0 0-.117.821Zm3.579 0c0 .176 0 .411-.059.587a1.281 1.281 0 0 1-.293.469 3.3 3.3 0 0 1-.47.352 1.727 1.727 0 0 1-.586.117c-.176 0-.352-.058-.528-.117a1.294 1.294 0 0 1-.47-.293 1.294 1.294 0 0 1-.293-.47c-.059-.176-.117-.352-.117-.528 0-.176 0-.41.058-.586.059-.176.176-.352.294-.47.117-.117.293-.234.469-.352.176-.058.352-.117.587-.117.176 0 .41.059.586.117a.918.918 0 0 1 .47.352c.117.118.234.294.293.47.059.117.059.293.059.469Zm16.133 0c0 .293.059.587.176.821.117.294.293.528.469.704.235.176.47.352.704.47.294.117.528.117.822.117a3.5 3.5 0 0 0 .821-.117c.293-.118.528-.235.704-.47.176-.176.352-.469.469-.704.118-.293.118-.528.118-.821 0-.293-.059-.587-.118-.821-.117-.235-.234-.528-.469-.704-.235-.176-.469-.352-.704-.47-.293-.117-.528-.117-.821-.117-.294 0-.587 0-.822.117-.293.118-.528.235-.704.47-.234.176-.352.41-.469.704a2.075 2.075 0 0 0-.176.821Zm3.579.059c0 .176 0 .352-.059.528a1.281 1.281 0 0 1-.293.469 1.28 1.28 0 0 1-.47.293c-.176.059-.352.118-.528.118a2.07 2.07 0 0 1-.586-.118.913.913 0 0 1-.47-.352 1.281 1.281 0 0 1-.293-.469 1.728 1.728 0 0 1-.117-.587c0-.176 0-.41.117-.586s.176-.352.293-.47c.118-.117.294-.234.47-.352.176-.058.352-.117.586-.117.176 0 .411.059.587.117a.912.912 0 0 1 .469.352c.118.118.235.294.294.47-.059.293 0 .469 0 .704Zm-44.646 1.994a1.62 1.62 0 0 0 1.056 0c.352-.117.646-.293.88-.586 0 .234.059.352.059.469h.587v-2.464c0-.88-.294-1.349-.88-1.525-.763-.235-1.995-.059-2.347.586l.352.352c1.349-.704 2.171-.469 2.171.587h-.587c-.469.059-.997.117-1.467.293a.933.933 0 0 0-.586.47c-.118.234-.176.528-.118.762 0 .235.118.47.294.646.117.234.352.352.586.41Zm.352-1.818c.47-.059.998-.118 1.467-.176.059.997-.411 1.584-1.291 1.525-.176 0-.352-.059-.469-.117-.117-.118-.235-.235-.235-.411v-.235c0-.058.059-.176.118-.234l.176-.176c.058-.118.176-.176.234-.176Zm16.544-.704c-.469.058-.997.117-1.466.293a.934.934 0 0 0-.587.469 1.12 1.12 0 0 0-.117.763c0 .235.117.469.293.645.176.176.352.294.645.352.352.118.704.118 1.056.059.352-.117.646-.293.88-.587.059.176.059.352.118.47h.586v-2.582c0-.293 0-.528-.176-.821-.176-.293-.352-.469-.586-.587-.411-.176-.88-.234-1.291-.117-.469.059-.88.293-1.173.587l.352.469c.234-.235.528-.352.88-.411.352-.058.645 0 .938.118.118.058.235.234.352.352.059.176.059.293.059.469-.411.059-.587.059-.763.059Zm-.821 1.994a.532.532 0 0 1-.411-.176.937.937 0 0 1-.234-.41c-.059-.176 0-.294.058-.411.059-.117.235-.235.352-.235.528-.117 1.056-.117 1.584-.234.118 1.056-.469 1.584-1.349 1.466Zm23.115-.058a1.695 1.695 0 0 1-.763 0 .935.935 0 0 1-.587-.47 3.209 3.209 0 0 1-.528.411c.235.352.587.587.939.704.411.117.821.117 1.173 0 .294-.059.587-.176.763-.411a1.4 1.4 0 0 0 .293-.821c0-.587-.352-.939-.997-1.115a4.857 4.857 0 0 1-.88-.234c-.176-.059-.411-.294-.352-.411.059-.117.117-.176.176-.293.059-.059.176-.118.293-.176.235-.059.47-.059.646 0 .234.058.41.234.528.41l.528-.352c-.411-.938-1.936-.938-2.523-.352a1.28 1.28 0 0 0-.293.47.81.81 0 0 0 0 .528c.058.176.117.352.234.469.118.117.294.235.411.293.352.118.763.235 1.115.294.293.058.528.234.469.528-.059.117-.117.234-.176.293l-.469.235Zm10.032-2.464c.176-.176.352-.294.528-.47a2.271 2.271 0 0 0-3.168 0 2.746 2.746 0 0 0-.528 1.643c.058.587.293 1.115.762 1.525.411.294.939.47 1.467.411a2.035 2.035 0 0 0 1.349-.704 3.397 3.397 0 0 0-.469-.411 2.492 2.492 0 0 1-.411.352c-.176.059-.352.118-.528.118-.176 0-.352 0-.528-.059a1.281 1.281 0 0 1-.469-.293c-.293-.294-.411-.646-.469-1.056 0-.411.058-.763.293-1.115a.912.912 0 0 1 .469-.352c.176-.059.352-.117.587-.117.176 0 .411.058.587.117.234.176.41.293.528.411Zm-42.006-.411c.235-.059.47-.059.704 0 .235.059.411.235.587.411.176-.176.352-.352.528-.47-.411-.41-.939-.645-1.467-.645-.586 0-1.114.176-1.525.587-.411.41-.587.997-.587 1.584 0 .586.235 1.114.646 1.584.41.352.938.528 1.466.528s1.056-.235 1.467-.587l-.411-.528c-.762.587-1.466.645-1.994.117-.235-.293-.411-.645-.411-.997s.059-.763.293-1.056c.176-.293.47-.469.704-.528Zm29.92-2.816a2.435 2.435 0 0 1-.586-.235c-.88 2.23-1.702 4.4-2.582 6.571l.587.235c.88-2.171 1.701-4.342 2.581-6.571Zm-9.738 3.696c0-.117.058-.293.117-.411a.713.713 0 0 1 .293-.293 2.9 2.9 0 0 1 .411-.176.5.5 0 0 1 .411 0h.234v-.645c-.293-.059-.586 0-.88.058a1.614 1.614 0 0 0-.704.528c-.058-.234-.058-.352-.058-.469h-.587v3.989h.645v-.821c.059-.587.059-1.173.118-1.76Zm-23.584 2.523h.645v-3.99h-.645v3.99Zm15.546-.47v.235c0 .059.059.117.118.176.058.059.117.117.176.117.058 0 .117.059.176 0 .293 0 .469-.176.528-.528 0-.058 0-.117-.059-.176 0-.058-.059-.117-.117-.176-.059-.058-.118-.058-.176-.117-.059 0-.118-.059-.176 0h-.176c-.059 0-.118.059-.176.117-.059.059-.059.118-.118.176v.176Zm-14.784-5.045c0-.352-.176-.528-.469-.528h-.176c-.059 0-.117.059-.176.117-.059.059-.059.118-.117.176-.059.059-.059.118-.059.176v.176c0 .059.059.118.117.176.059.059.118.059.176.118.059 0 .118.058.176.058h.176c.059 0 .118-.058.176-.117.059-.059.059-.117.118-.176.058-.059.058-.117.058-.176Zm104.427-11.088v1.349h154.939v-1.349H500.147Zm0 39.483h154.939v-1.35H500.147v1.35Z" fill-opacity=".5"></path><path d="M487.073 124.223v-10.736H343.75v10.736h143.323Z" fill-opacity=".8"></path></g><defs><clipPath id="svg407840843_30179_a"><path fill="#fff" transform="translate(290)" d="M0 0h405v240H0z"></path></clipPath></defs></svg>