<svg xmlns:xlink="http://www.w3.org/1999/xlink"  width="1448" height="180" fill="none" xmlns="http://www.w3.org/2000/svg" id="svg837933761_4566"><g opacity=".5" fill-opacity=".5" clip-path="url(#svg837933761_4566_a)"><path d="M1165.7 238c-18.6 0-35.51-2.529-50.73-7.587-15.22-5.245-28.38-12.457-39.46-21.636-11.09-9.367-19.73-20.232-25.93-32.595-6.02-12.364-9.02-25.758-9.02-40.182 0-14.424 3-27.818 9.02-40.182 6.2-12.364 14.84-23.135 25.93-32.314 11.27-9.366 24.42-16.578 39.46-21.636C1130.19 36.623 1147 34 1165.42 34c18.23 0 34.95 2.623 50.17 7.868 15.22 5.058 28.37 12.27 39.46 21.636 11.09 9.18 19.64 19.95 25.65 32.314 6.2 12.364 9.3 25.758 9.3 40.182 0 14.424-3.1 27.818-9.3 40.182-6.01 12.363-14.56 23.228-25.65 32.595-11.09 9.179-24.24 16.391-39.46 21.636-15.22 5.058-31.85 7.587-49.89 7.587Zm-.28-44.959c11.09 0 21.23-1.405 30.44-4.215 9.39-2.997 17.47-7.024 24.24-12.082 6.76-5.245 11.93-11.334 15.5-18.265 3.76-6.931 5.64-14.424 5.64-22.479s-1.88-15.548-5.64-22.479c-3.57-6.931-8.74-12.926-15.5-17.984-6.77-5.245-14.85-9.273-24.24-12.083-9.21-2.997-19.35-4.495-30.44-4.495s-21.33 1.498-30.72 4.495c-9.21 2.81-17.29 6.838-24.24 12.083-6.77 5.058-11.94 11.053-15.51 17.984-3.57 6.931-5.35 14.424-5.35 22.479s1.78 15.548 5.35 22.479c3.57 6.931 8.74 13.02 15.51 18.265 6.95 5.058 15.03 9.085 24.24 12.082 9.39 2.81 19.63 4.215 30.72 4.215Z" fill="url(#svg837933761_4566_b)"></path><path d="m921.255 235.191-78.356-88.793-97.805-107.9h61.163l75.256 85.14L982.7 235.191h-61.445Zm-177.57 0 93.858-107.057 36.924 22.198-71.31 84.859h-59.472Zm144.593-91.322-36.36-21.355 67.928-84.017H979.6L888.278 143.87Z" fill="url(#svg837933761_4566_c)"></path><path d="M561.413 238c-18.603 0-35.514-2.529-50.734-7.587-15.221-5.245-28.374-12.457-39.46-21.636-11.087-9.367-19.731-20.232-25.931-32.595-6.013-12.364-9.02-25.758-9.02-40.182 0-14.424 3.007-27.818 9.02-40.182 6.2-12.364 14.844-23.135 25.931-32.314 11.274-9.366 24.427-16.578 39.46-21.636C525.899 36.623 542.717 34 561.131 34c18.227 0 34.951 2.623 50.171 7.868 15.22 5.058 28.374 12.27 39.46 21.636 11.086 9.18 19.636 19.95 25.649 32.314 6.201 12.364 9.301 25.758 9.301 40.182 0 14.424-3.1 27.818-9.301 40.182-6.013 12.363-14.563 23.228-25.649 32.595-11.086 9.179-24.24 16.391-39.46 21.636-15.22 5.058-31.85 7.587-49.889 7.587Zm-.282-44.959c11.087 0 21.234-1.405 30.441-4.215 9.395-2.997 17.475-7.024 24.24-12.082 6.764-5.245 11.932-11.334 15.502-18.265 3.758-6.931 5.637-14.424 5.637-22.479s-1.879-15.548-5.637-22.479c-3.57-6.931-8.738-12.926-15.502-17.984-6.765-5.245-14.845-9.273-24.24-12.083-9.207-2.997-19.354-4.495-30.441-4.495-11.086 0-21.327 1.498-30.722 4.495-9.208 2.81-17.288 6.838-24.24 12.083-6.765 5.058-11.932 11.053-15.502 17.984-3.57 6.931-5.356 14.424-5.356 22.479s1.786 15.548 5.356 22.479c3.57 6.931 8.737 13.02 15.502 18.265 6.952 5.058 15.032 9.085 24.24 12.082 9.395 2.81 19.636 4.215 30.722 4.215Z" fill="url(#svg837933761_4566_d)"></path><path d="M150 235.191V38.497h112.461c17.288 0 31.85 1.967 43.688 5.901 12.026 3.934 21.046 9.46 27.059 16.579 6.013 7.118 9.019 15.735 9.019 25.85 0 10.866-3.288 20.232-9.865 28.1-6.577 7.68-16.536 13.019-29.877 16.017l1.409-5.058c8.456 1.873 16.348 4.87 23.676 8.991 7.517 3.934 13.53 9.273 18.039 16.017 4.698 6.744 7.047 14.986 7.047 24.727 0 11.989-2.537 21.824-7.61 29.504-5.074 7.681-11.744 13.769-20.012 18.265-8.268 4.308-17.288 7.399-27.059 9.273-9.583 1.685-18.978 2.528-28.185 2.528H150Zm45.097-39.9h75.82c6.577 0 12.402-.75 17.475-2.248 5.262-1.499 9.395-3.841 12.402-7.025 3.194-3.372 4.792-7.587 4.792-12.645 0-5.807-1.973-10.209-5.919-13.206-3.946-3.185-8.738-5.339-14.375-6.463-5.637-1.311-10.899-1.967-15.784-1.967h-74.411v43.554Zm0-79.521h67.928c6.201 0 11.65-.749 16.348-2.248 4.885-1.499 8.643-3.653 11.274-6.463 2.819-2.81 4.228-6.369 4.228-10.677 0-6.557-3.288-11.147-9.865-13.77-6.389-2.809-14.281-4.214-23.676-4.214h-66.237v37.372Z" fill="url(#svg837933761_4566_e)"></path></g><defs><linearGradient id="svg837933761_4566_b" x1="720" y1="34" x2="720" y2="176.5" gradientUnits="userSpaceOnUse"><stop stop-color="#fff"></stop><stop offset="1" stop-color="#fff" stop-opacity="0"></stop></linearGradient><linearGradient id="svg837933761_4566_c" x1="720" y1="34" x2="720" y2="176.5" gradientUnits="userSpaceOnUse"><stop stop-color="#fff"></stop><stop offset="1" stop-color="#fff" stop-opacity="0"></stop></linearGradient><linearGradient id="svg837933761_4566_d" x1="720" y1="34" x2="720" y2="176.5" gradientUnits="userSpaceOnUse"><stop stop-color="#fff"></stop><stop offset="1" stop-color="#fff" stop-opacity="0"></stop></linearGradient><linearGradient id="svg837933761_4566_e" x1="720" y1="34" x2="720" y2="176.5" gradientUnits="userSpaceOnUse"><stop stop-color="#fff"></stop><stop offset="1" stop-color="#fff" stop-opacity="0"></stop></linearGradient><clipPath id="svg837933761_4566_a"><path fill="#fff" d="M0 0h1448v180H0z"></path></clipPath></defs></svg>