<svg xmlns:xlink="http://www.w3.org/1999/xlink"  width="160" height="37" fill="none" xmlns="http://www.w3.org/2000/svg" id="svg1284217838_4504"><path d="M143.588 25.823c-1.407 0-2.687-.192-3.839-.576-1.151-.398-2.146-.946-2.985-1.642a7.786 7.786 0 0 1-1.962-2.474 6.897 6.897 0 0 1-.683-3.05c0-1.094.228-2.11.683-3.05a7.556 7.556 0 0 1 1.962-2.452c.853-.71 1.848-1.258 2.985-1.642 1.152-.398 2.424-.597 3.818-.597 1.379 0 2.644.2 3.796.597 1.151.384 2.146.931 2.985 1.642a7.312 7.312 0 0 1 1.941 2.453c.469.938.704 1.955.704 3.05a6.726 6.726 0 0 1-.704 3.049 7.53 7.53 0 0 1-1.941 2.474c-.839.696-1.834 1.244-2.985 1.642-1.152.384-2.41.576-3.775.576Zm-.021-3.413c.839 0 1.606-.106 2.303-.32.711-.227 1.322-.532 1.834-.916.512-.398.903-.86 1.173-1.386a3.535 3.535 0 0 0 .426-1.707c0-.61-.142-1.18-.426-1.706a3.96 3.96 0 0 0-1.173-1.364c-.512-.399-1.123-.704-1.834-.917-.697-.228-1.464-.342-2.303-.342s-1.614.114-2.325.341a5.847 5.847 0 0 0-1.834.918 3.96 3.96 0 0 0-1.173 1.364 3.682 3.682 0 0 0-.405 1.706c0 .612.135 1.18.405 1.707.27.526.661.988 1.173 1.386a6.51 6.51 0 0 0 1.834.917c.711.213 1.486.32 2.325.32Z" fill="url(#svg1284217838_4504_a)"></path><path d="m125.093 25.61-5.929-6.74-7.4-8.189h4.628l5.694 6.462 7.656 8.466h-4.649Zm-13.435 0 7.101-8.126 2.794 1.685-5.396 6.44h-4.499Zm10.94-6.931-2.751-1.621 5.139-6.377h4.521l-6.909 7.998Z" fill="url(#svg1284217838_4504_b)"></path><path d="M97.867 25.823c-1.408 0-2.687-.192-3.839-.576-1.152-.398-2.147-.946-2.986-1.642a7.792 7.792 0 0 1-1.962-2.474 6.898 6.898 0 0 1-.682-3.05c0-1.094.228-2.11.682-3.05a7.561 7.561 0 0 1 1.962-2.452c.853-.71 1.849-1.258 2.986-1.642 1.152-.398 2.424-.597 3.817-.597 1.38 0 2.645.2 3.796.597 1.152.384 2.147.931 2.986 1.642a7.312 7.312 0 0 1 1.941 2.453c.469.938.703 1.955.703 3.05a6.725 6.725 0 0 1-.703 3.049 7.53 7.53 0 0 1-1.941 2.474c-.839.696-1.834 1.244-2.986 1.642-1.151.384-2.41.576-3.774.576Zm-.022-3.413a7.85 7.85 0 0 0 2.304-.32c.71-.227 1.322-.532 1.834-.916.511-.398.902-.86 1.172-1.386a3.525 3.525 0 0 0 .427-1.707c0-.61-.142-1.18-.427-1.706a3.967 3.967 0 0 0-1.172-1.364c-.512-.399-1.124-.704-1.834-.917-.697-.228-1.465-.342-2.304-.342a7.59 7.59 0 0 0-2.324.341 5.842 5.842 0 0 0-1.834.918 3.962 3.962 0 0 0-1.173 1.364 3.681 3.681 0 0 0-.405 1.706c0 .612.135 1.18.405 1.707.27.526.661.988 1.173 1.386.526.384 1.137.69 1.834.917.71.213 1.486.32 2.324.32Z" fill="url(#svg1284217838_4504_c)"></path><path d="M66.739 25.61V10.681h8.508c1.308 0 2.41.149 3.306.447.91.299 1.592.718 2.047 1.258.455.54.683 1.195.683 1.963 0 .824-.25 1.535-.747 2.132-.497.583-1.25.988-2.26 1.216l.106-.384a6.49 6.49 0 0 1 1.792.682 3.644 3.644 0 0 1 1.365 1.216c.355.512.533 1.137.533 1.877 0 .91-.192 1.656-.576 2.239a4.177 4.177 0 0 1-1.514 1.386 7.415 7.415 0 0 1-2.047.704c-.725.128-1.436.192-2.133.192h-9.064Zm3.412-3.029h5.736c.498 0 .939-.057 1.323-.17.398-.114.71-.292.938-.534.242-.255.362-.575.362-.96 0-.44-.149-.774-.448-1.002a2.465 2.465 0 0 0-1.087-.49c-.427-.1-.825-.15-1.194-.15h-5.63v3.306Zm0-6.035h5.14c.468 0 .88-.057 1.236-.17.37-.114.654-.278.853-.491.213-.213.32-.483.32-.81 0-.498-.249-.846-.746-1.045-.484-.214-1.08-.32-1.792-.32h-5.011v2.836Z" fill="url(#svg1284217838_4504_d)"></path><path d="M7.007 29.13h12.011c1.007 0 1.94-.524 2.464-1.384L34.108 7.007H22.173a2.884 2.884 0 0 0-2.46 1.378L7.008 29.13Z" fill="url(#svg1284217838_4504_e)"></path><path d="M26.365 29.13h12.01a2.883 2.883 0 0 0 2.464-1.384L53.465 7.007H41.531a2.884 2.884 0 0 0-2.46 1.378L26.365 29.13Z" fill="url(#svg1284217838_4504_f)"></path><defs><linearGradient id="svg1284217838_4504_a" x1="109.866" y1="10.34" x2="109.866" y2="25.823" gradientUnits="userSpaceOnUse"><stop offset=".405" stop-color="#fff"></stop><stop offset="1" stop-color="#5D5D5D"></stop></linearGradient><linearGradient id="svg1284217838_4504_b" x1="109.866" y1="10.34" x2="109.866" y2="25.823" gradientUnits="userSpaceOnUse"><stop offset=".405" stop-color="#fff"></stop><stop offset="1" stop-color="#5D5D5D"></stop></linearGradient><linearGradient id="svg1284217838_4504_c" x1="109.866" y1="10.34" x2="109.866" y2="25.823" gradientUnits="userSpaceOnUse"><stop offset=".405" stop-color="#fff"></stop><stop offset="1" stop-color="#5D5D5D"></stop></linearGradient><linearGradient id="svg1284217838_4504_d" x1="109.866" y1="10.34" x2="109.866" y2="25.823" gradientUnits="userSpaceOnUse"><stop offset=".405" stop-color="#fff"></stop><stop offset="1" stop-color="#5D5D5D"></stop></linearGradient><linearGradient id="svg1284217838_4504_e" x1="30.236" y1="7.007" x2="30.236" y2="29.13" gradientUnits="userSpaceOnUse"><stop offset=".405" stop-color="#fff"></stop><stop offset="1" stop-color="#5D5D5D"></stop></linearGradient><linearGradient id="svg1284217838_4504_f" x1="30.236" y1="7.007" x2="30.236" y2="29.13" gradientUnits="userSpaceOnUse"><stop offset=".405" stop-color="#fff"></stop><stop offset="1" stop-color="#5D5D5D"></stop></linearGradient></defs></svg>