<svg
  xmlns="http://www.w3.org/2000/svg"
  viewBox="0 0 230 80"
  width="230"
  height="80"
  preserveAspectRatio="xMidYMid slice"
  style="width: 100%; height: 100%; transform: translate3d(0px, 0px, 0px)"
>
  <defs>
    <clipPath id="__lottie_element_1346">
      <rect width="230" height="80" x="0" y="0"></rect>
    </clipPath>
    <clipPath id="__lottie_element_1351">
      <path d="M0,0 L230,0 L230,80 L0,80z"></path>
    </clipPath>
    <clipPath id="__lottie_element_1352">
      <path
        fill="#ffffff"
        clip-rule="nonzero"
        d=" M0,0 C0,0 80,0 80,0 C80,0 80,80 80,80 C80,80 0,80 0,80 C0,80 0,0 0,0"
        fill-opacity="1"
      ></path>
    </clipPath>
  </defs>
  <g clip-path="url(#__lottie_element_1346)">
    <g
      clip-path="url(#__lottie_element_1351)"
      transform="matrix(1,0,0,1,0,0)"
      opacity="1"
      style="display: block"
    >
      <g clip-path="url(#__lottie_element_1352)">
        <g
          transform="matrix(0.8870108127593994,0.4617486000061035,-0.4617486000061035,0.8870108127593994,46.017642974853516,-19.510459899902344)"
          opacity="1"
          style="display: block"
        >
          <path
            fill="rgb(0,0,0)"
            fill-opacity="1"
            d=" M0,0 C0,0 0,0 0,0 C0,0 18.415000915527344,0 18.415000915527344,0 C18.415000915527344,0 18.415000915527344,0 18.415000915527344,0 C18.415000915527344,0 18.415000915527344,117.03083038330078 18.415000915527344,117.03083038330078 C18.415000915527344,117.03083038330078 0,117.03083038330078 0,117.03083038330078 C0,117.03083038330078 0,0 0,0z"
          ></path>
        </g>
        <g
          transform="matrix(0.8870108127593994,0.4617486000061035,-0.4617486000061035,0.8870108127593994,70.38372802734375,-10.554683685302734)"
          opacity="1"
          style="display: block"
        >
          <path
            fill="rgb(0,0,0)"
            fill-opacity="1"
            d=" M0,0 C0,0 0,0 0,0 C0,0 18.286666870117188,0 18.286666870117188,0 C18.286666870117188,0 18.286666870117188,0 18.286666870117188,0 C18.286666870117188,0 18.286666870117188,100.59500122070312 18.286666870117188,100.59500122070312 C18.286666870117188,100.59500122070312 0,100.59500122070312 0,100.59500122070312 C0,100.59500122070312 0,0 0,0z"
          ></path>
        </g>
        <g transform="matrix(1,0,0,1,0,57)" opacity="1" style="display: block">
          <path
            fill="rgb(255,255,255)"
            fill-opacity="1"
            d=" M0,0 C0,0 80,0 80,0 C80,0 80,23 80,23 C80,23 0,23 0,23 C0,23 0,0 0,0z"
          ></path>
        </g>
        <g transform="matrix(1,0,0,1,0,0)" opacity="1" style="display: block">
          <path
            fill="rgb(255,255,255)"
            fill-opacity="1"
            d=" M0,0 C0,0 80,0 80,0 C80,0 80,24 80,24 C80,24 0,24 0,24 C0,24 0,0 0,0z"
          ></path>
        </g>
        
      </g>
    </g>
   
    <g
      transform="matrix(1,0,0,1,88,28.999998092651367)"
      opacity="1"
      style="display: block"
    >
      <path
        fill="rgb(0,0,0)"
        fill-opacity="1"
        d=" M5.03000020980835,9.15999984741211 C5.03000020980835,9.15999984741211 12.619999885559082,9.15999984741211 12.619999885559082,9.15999984741211 C13.3100004196167,9.15999984741211 13.920000076293945,9.069999694824219 14.4399995803833,8.899999618530273 C14.989999771118164,8.729999542236328 15.40999984741211,8.489999771118164 15.699999809265137,8.180000305175781 C16.010000228881836,7.869999885559082 16.170000076293945,7.460000038146973 16.170000076293945,6.980000019073486 C16.170000076293945,6.25 15.800000190734863,5.730000019073486 15.069999694824219,5.440000057220459 C14.359999656677246,5.130000114440918 13.479999542236328,4.96999979019165 12.430000305175781,4.96999979019165 C12.430000305175781,4.96999979019165 5.03000020980835,4.96999979019165 5.03000020980835,4.96999979019165 C5.03000020980835,4.96999979019165 5.03000020980835,9.15999984741211 5.03000020980835,9.15999984741211 C5.03000020980835,9.15999984741211 5.03000020980835,9.15999984741211 5.03000020980835,9.15999984741211z M5.03000020980835,18.059999465942383 C5.03000020980835,18.059999465942383 13.5,18.059999465942383 13.5,18.059999465942383 C14.229999542236328,18.059999465942383 14.880000114440918,17.979999542236328 15.449999809265137,17.809999465942383 C16.040000915527344,17.639999389648438 16.489999771118164,17.3799991607666 16.829999923706055,17.020000457763672 C17.190000534057617,16.639999389648438 17.3700008392334,16.18000030517578 17.3700008392334,15.609999656677246 C17.3700008392334,14.960000038146973 17.149999618530273,14.470000267028809 16.709999084472656,14.130000114440918 C16.270000457763672,13.770000457763672 15.729999542236328,13.529999732971191 15.100000381469727,13.399999618530273 C14.470000267028809,13.25 13.890000343322754,13.180000305175781 13.34000015258789,13.180000305175781 C13.34000015258789,13.180000305175781 5.03000020980835,13.180000305175781 5.03000020980835,13.180000305175781 C5.03000020980835,13.180000305175781 5.03000020980835,18.059999465942383 5.03000020980835,18.059999465942383 C5.03000020980835,18.059999465942383 5.03000020980835,18.059999465942383 5.03000020980835,18.059999465942383z M0,22.530000686645508 C0,22.530000686645508 0,0.5 0,0.5 C0,0.5 12.550000190734863,0.5 12.550000190734863,0.5 C14.479999542236328,0.5 16.110000610351562,0.7200000286102295 17.43000030517578,1.159999966621399 C18.770000457763672,1.600000023841858 19.780000686645508,2.2200000286102295 20.450000762939453,3.0199999809265137 C21.1200008392334,3.819999933242798 21.459999084472656,4.789999961853027 21.459999084472656,5.920000076293945 C21.459999084472656,7.139999866485596 21.09000015258789,8.180000305175781 20.360000610351562,9.0600004196167 C19.6299991607666,9.920000076293945 18.510000228881836,10.510000228881836 17.020000457763672,10.850000381469727 C17.020000457763672,10.850000381469727 17.18000030517578,10.289999961853027 17.18000030517578,10.289999961853027 C18.1200008392334,10.5 19,10.84000015258789 19.81999969482422,11.300000190734863 C20.65999984741211,11.739999771118164 21.329999923706055,12.329999923706055 21.829999923706055,13.09000015258789 C22.350000381469727,13.850000381469727 22.6200008392334,14.770000457763672 22.6200008392334,15.859999656677246 C22.6200008392334,17.200000762939453 22.34000015258789,18.299999237060547 21.770000457763672,19.15999984741211 C21.200000762939453,20.020000457763672 20.459999084472656,20.709999084472656 19.540000915527344,21.209999084472656 C18.6200008392334,21.690000534057617 17.610000610351562,22.030000686645508 16.520000457763672,22.239999771118164 C15.449999809265137,22.43000030517578 14.399999618530273,22.530000686645508 13.369999885559082,22.530000686645508 C13.369999885559082,22.530000686645508 0,22.530000686645508 0,22.530000686645508 C0,22.530000686645508 0,22.530000686645508 0,22.530000686645508z M45.88999938964844,17.809999465942383 C47.130001068115234,17.809999465942383 48.2599983215332,17.649999618530273 49.290000915527344,17.34000015258789 C50.34000015258789,17 51.2400016784668,16.549999237060547 52,15.979999542236328 C52.7599983215332,15.390000343322754 53.33000183105469,14.720000267028809 53.72999954223633,13.9399995803833 C54.150001525878906,13.15999984741211 54.36000061035156,12.319999694824219 54.36000061035156,11.420000076293945 C54.36000061035156,10.520000457763672 54.150001525878906,9.680000305175781 53.72999954223633,8.899999618530273 C53.33000183105469,8.119999885559082 52.7599983215332,7.460000038146973 52,6.889999866485596 C51.2400016784668,6.300000190734863 50.34000015258789,5.849999904632568 49.290000915527344,5.539999961853027 C48.2599983215332,5.199999809265137 47.130001068115234,5.03000020980835 45.88999938964844,5.03000020980835 C44.650001525878906,5.03000020980835 43.5099983215332,5.199999809265137 42.459999084472656,5.539999961853027 C41.43000030517578,5.849999904632568 40.540000915527344,6.300000190734863 39.7599983215332,6.889999866485596 C39,7.460000038146973 38.43000030517578,8.119999885559082 38.029998779296875,8.899999618530273 C37.630001068115234,9.680000305175781 37.43000030517578,10.520000457763672 37.43000030517578,11.420000076293945 C37.43000030517578,12.319999694824219 37.630001068115234,13.15999984741211 38.029998779296875,13.9399995803833 C38.43000030517578,14.720000267028809 39,15.390000343322754 39.7599983215332,15.979999542236328 C40.540000915527344,16.549999237060547 41.43000030517578,17 42.459999084472656,17.34000015258789 C43.5099983215332,17.649999618530273 44.650001525878906,17.809999465942383 45.88999938964844,17.809999465942383 C45.88999938964844,17.809999465942383 45.88999938964844,17.809999465942383 45.88999938964844,17.809999465942383z M45.91999816894531,22.84000015258789 C43.84000015258789,22.84000015258789 41.959999084472656,22.559999465942383 40.2599983215332,21.989999771118164 C38.560001373291016,21.399999618530273 37.099998474121094,20.600000381469727 35.86000061035156,19.56999969482422 C34.619998931884766,18.520000457763672 33.650001525878906,17.299999237060547 32.959999084472656,15.920000076293945 C32.290000915527344,14.539999961853027 31.950000762939453,13.039999961853027 31.950000762939453,11.420000076293945 C31.950000762939453,9.800000190734863 32.290000915527344,8.300000190734863 32.959999084472656,6.920000076293945 C33.650001525878906,5.539999961853027 34.619998931884766,4.329999923706055 35.86000061035156,3.299999952316284 C37.119998931884766,2.25 38.58000183105469,1.4500000476837158 40.2599983215332,0.8799999952316284 C41.959999084472656,0.28999999165534973 43.83000183105469,0 45.88999938964844,0 C47.91999816894531,0 49.790000915527344,0.28999999165534973 51.4900016784668,0.8799999952316284 C53.189998626708984,1.4500000476837158 54.65999984741211,2.25 55.900001525878906,3.299999952316284 C57.13999938964844,4.329999923706055 58.09000015258789,5.539999961853027 58.7599983215332,6.920000076293945 C59.45000076293945,8.300000190734863 59.79999923706055,9.800000190734863 59.79999923706055,11.420000076293945 C59.79999923706055,13.039999961853027 59.45000076293945,14.539999961853027 58.7599983215332,15.920000076293945 C58.09000015258789,17.299999237060547 57.13999938964844,18.520000457763672 55.900001525878906,19.56999969482422 C54.65999984741211,20.600000381469727 53.189998626708984,21.399999618530273 51.4900016784668,21.989999771118164 C49.790000915527344,22.559999465942383 47.93000030517578,22.84000015258789 45.91999816894531,22.84000015258789 C45.91999816894531,22.84000015258789 45.91999816894531,22.84000015258789 45.91999816894531,22.84000015258789z M82.41000366210938,12.300000190734863 C82.41000366210938,12.300000190734863 78.3499984741211,9.90999984741211 78.3499984741211,9.90999984741211 C78.3499984741211,9.90999984741211 85.93000030517578,0.5 85.93000030517578,0.5 C85.93000030517578,0.5 92.5999984741211,0.5 92.5999984741211,0.5 C92.5999984741211,0.5 82.41000366210938,12.300000190734863 82.41000366210938,12.300000190734863 C82.41000366210938,12.300000190734863 82.41000366210938,12.300000190734863 82.41000366210938,12.300000190734863z M66.2699966430664,22.530000686645508 C66.2699966430664,22.530000686645508 76.75,10.539999961853027 76.75,10.539999961853027 C76.75,10.539999961853027 80.87000274658203,13.029999732971191 80.87000274658203,13.029999732971191 C80.87000274658203,13.029999732971191 72.91000366210938,22.530000686645508 72.91000366210938,22.530000686645508 C72.91000366210938,22.530000686645508 66.2699966430664,22.530000686645508 66.2699966430664,22.530000686645508 C66.2699966430664,22.530000686645508 66.2699966430664,22.530000686645508 66.2699966430664,22.530000686645508z M86.08999633789062,22.530000686645508 C86.08999633789062,22.530000686645508 77.33999633789062,12.579999923706055 77.33999633789062,12.579999923706055 C77.33999633789062,12.579999923706055 66.43000030517578,0.5 66.43000030517578,0.5 C66.43000030517578,0.5 73.25,0.5 73.25,0.5 C73.25,0.5 81.6500015258789,10.039999961853027 81.6500015258789,10.039999961853027 C81.6500015258789,10.039999961853027 92.94999694824219,22.530000686645508 92.94999694824219,22.530000686645508 C92.94999694824219,22.530000686645508 86.08999633789062,22.530000686645508 86.08999633789062,22.530000686645508 C86.08999633789062,22.530000686645508 86.08999633789062,22.530000686645508 86.08999633789062,22.530000686645508z M113.3499984741211,17.809999465942383 C114.58999633789062,17.809999465942383 115.70999908447266,17.649999618530273 116.73999786376953,17.34000015258789 C117.79000091552734,17 118.69999694824219,16.549999237060547 119.44999694824219,15.979999542236328 C120.20999908447266,15.390000343322754 120.77999877929688,14.720000267028809 121.18000030517578,13.9399995803833 C121.5999984741211,13.15999984741211 121.80999755859375,12.319999694824219 121.80999755859375,11.420000076293945 C121.80999755859375,10.520000457763672 121.5999984741211,9.680000305175781 121.18000030517578,8.899999618530273 C120.77999877929688,8.119999885559082 120.20999908447266,7.460000038146973 119.44999694824219,6.889999866485596 C118.69999694824219,6.300000190734863 117.79000091552734,5.849999904632568 116.73999786376953,5.539999961853027 C115.70999908447266,5.199999809265137 114.58999633789062,5.03000020980835 113.3499984741211,5.03000020980835 C112.11000061035156,5.03000020980835 110.97000122070312,5.199999809265137 109.91999816894531,5.539999961853027 C108.88999938964844,5.849999904632568 107.98999786376953,6.300000190734863 107.20999908447266,6.889999866485596 C106.45999908447266,7.460000038146973 105.87999725341797,8.119999885559082 105.4800033569336,8.899999618530273 C105.08000183105469,9.680000305175781 104.87999725341797,10.520000457763672 104.87999725341797,11.420000076293945 C104.87999725341797,12.319999694824219 105.08000183105469,13.15999984741211 105.4800033569336,13.9399995803833 C105.87999725341797,14.720000267028809 106.45999908447266,15.390000343322754 107.20999908447266,15.979999542236328 C107.98999786376953,16.549999237060547 108.88999938964844,17 109.91999816894531,17.34000015258789 C110.97000122070312,17.649999618530273 112.11000061035156,17.809999465942383 113.3499984741211,17.809999465942383 C113.3499984741211,17.809999465942383 113.3499984741211,17.809999465942383 113.3499984741211,17.809999465942383z M113.37999725341797,22.84000015258789 C111.30000305175781,22.84000015258789 109.41000366210938,22.559999465942383 107.70999908447266,21.989999771118164 C106.01000213623047,21.399999618530273 104.55000305175781,20.600000381469727 103.30999755859375,19.56999969482422 C102.06999969482422,18.520000457763672 101.0999984741211,17.299999237060547 100.41000366210938,15.920000076293945 C99.73999786376953,14.539999961853027 99.41000366210938,13.039999961853027 99.41000366210938,11.420000076293945 C99.41000366210938,9.800000190734863 99.73999786376953,8.300000190734863 100.41000366210938,6.920000076293945 C101.0999984741211,5.539999961853027 102.06999969482422,4.329999923706055 103.30999755859375,3.299999952316284 C104.56999969482422,2.25 106.02999877929688,1.4500000476837158 107.70999908447266,0.8799999952316284 C109.41000366210938,0.28999999165534973 111.29000091552734,0 113.3499984741211,0 C115.37999725341797,0 117.25,0.28999999165534973 118.94999694824219,0.8799999952316284 C120.6500015258789,1.4500000476837158 122.11000061035156,2.25 123.3499984741211,3.299999952316284 C124.58999633789062,4.329999923706055 125.54000091552734,5.539999961853027 126.20999908447266,6.920000076293945 C126.9000015258789,8.300000190734863 127.25,9.800000190734863 127.25,11.420000076293945 C127.25,13.039999961853027 126.9000015258789,14.539999961853027 126.20999908447266,15.920000076293945 C125.54000091552734,17.299999237060547 124.58999633789062,18.520000457763672 123.3499984741211,19.56999969482422 C122.11000061035156,20.600000381469727 120.6500015258789,21.399999618530273 118.94999694824219,21.989999771118164 C117.25,22.559999465942383 115.38999938964844,22.84000015258789 113.37999725341797,22.84000015258789 C113.37999725341797,22.84000015258789 113.37999725341797,22.84000015258789 113.37999725341797,22.84000015258789z"
      ></path>
    </g>
  </g>
</svg>
